<svg width="56" height="48" viewBox="0 0 56 48" fill="none" xmlns="http://www.w3.org/2000/svg">
<path d="M53.1729 24.5613H53.3729V24.3613V18.9478C53.3729 18.2566 53.0984 17.5938 52.6096 17.105C52.1209 16.6163 51.4581 16.3418 50.7669 16.3418H45.1729H44.9729V16.5418V17.3839C44.9729 19.2874 45.7291 21.1131 47.0751 22.4591C48.4212 23.8051 50.2468 24.5613 52.1504 24.5613H53.1729ZM42.7669 45.7944H42.9669V45.5944V44.7523C42.9669 42.3167 43.9344 39.9808 45.6567 38.2586C47.3789 36.5364 49.7148 35.5688 52.1504 35.5688H53.1729H53.3729V35.3688V26.7072V26.5072H53.1729H52.1504C49.7249 26.5072 47.398 25.5478 45.6774 23.8382C43.957 22.1289 42.9826 19.8083 42.9669 17.3832C42.9669 17.383 42.9669 17.3828 42.9669 17.3826L42.9669 16.5418V16.3418H42.7669H12.812H12.612V16.5418V17.3832C12.5963 19.8083 11.6219 22.1289 9.90154 23.8382C8.18099 25.5478 5.85401 26.5072 3.42857 26.5072H2.40601H2.20601V26.7072V35.3688V35.5688H2.40601H3.42857C5.86417 35.5688 8.20002 36.5364 9.92226 38.2586C11.6445 39.9808 12.612 42.3167 12.612 44.7523V45.5944V45.7944H12.812H42.7669ZM10.606 16.5418V16.3418H10.406H4.81209C4.81207 16.3418 4.81205 16.3418 4.81203 16.3418C4.13203 16.3416 3.4789 16.6072 2.99202 17.0819C2.50513 17.5566 2.22308 18.2028 2.20608 18.8826L2.20601 18.8826V18.8876V24.3012V24.5012H2.40601H3.42856C5.32147 24.5012 7.13776 23.7535 8.48203 22.4209C9.8263 21.0882 10.5897 19.2784 10.606 17.3856H10.606V17.3839V16.5418ZM2.40601 37.5748H2.20601V37.7748V43.1884C2.20601 43.8795 2.48058 44.5424 2.9693 45.0311C3.45802 45.5198 4.12087 45.7944 4.81203 45.7944H10.406H10.606V45.5944V44.7523C10.606 43.8097 10.4204 42.8764 10.0597 42.0056C9.69896 41.1348 9.17028 40.3436 8.50379 39.6771C7.8373 39.0106 7.04607 38.4819 6.17526 38.1212C5.30445 37.7605 4.37113 37.5748 3.42857 37.5748H2.40601ZM44.9729 45.5944V45.7944H45.1729H50.7669C51.4581 45.7944 52.1209 45.5198 52.6096 45.0311C53.0984 44.5424 53.3729 43.8795 53.3729 43.1884V37.7748V37.5748H53.1729H52.1504C50.2468 37.5748 48.4212 38.331 47.0751 39.6771C45.7291 41.0231 44.9729 42.8487 44.9729 44.7523V45.5944ZM54.0281 15.6866C54.893 16.5515 55.3789 17.7246 55.3789 18.9478V43.1884C55.3789 44.4116 54.893 45.5846 54.0281 46.4496C53.1632 47.3145 51.9901 47.8004 50.7669 47.8004H4.81203C3.58884 47.8004 2.41576 47.3145 1.55083 46.4496C0.685909 45.5846 0.2 44.4116 0.2 43.1884V18.9478C0.2 17.7246 0.685909 16.5515 1.55083 15.6866C2.41576 14.8217 3.58884 14.3357 4.81203 14.3357H50.7669C51.9901 14.3357 53.1632 14.8217 54.0281 15.6866Z" fill="#0A1B2B" stroke="#F2F0ED" stroke-width="0.4"/>
<path d="M21.7183 21.9518C23.5153 20.7511 25.6281 20.1102 27.7894 20.1102C30.6877 20.1102 33.4672 21.2615 35.5166 23.3108C37.5659 25.3602 38.7173 28.1397 38.7173 31.038C38.7173 33.1993 38.0764 35.3121 36.8756 37.1091C35.6748 38.9062 33.9681 40.3069 31.9713 41.134C29.9745 41.9611 27.7773 42.1775 25.6575 41.7558C23.5377 41.3342 21.5906 40.2934 20.0623 38.7651C18.534 37.2368 17.4933 35.2897 17.0716 33.1699C16.6499 31.0501 16.8664 28.8529 17.6935 26.8561C18.5206 24.8593 19.9212 23.1526 21.7183 21.9518ZM22.8328 38.4562C24.2999 39.4365 26.0249 39.9598 27.7894 39.9598C30.1557 39.9598 32.4249 39.0198 34.0981 37.3466C35.7713 35.6735 36.7113 33.4042 36.7113 31.038C36.7113 29.2734 36.188 27.5485 35.2077 26.0813C34.2273 24.6141 32.8339 23.4706 31.2037 22.7953C29.5734 22.12 27.7795 21.9434 26.0489 22.2876C24.3182 22.6319 22.7285 23.4816 21.4808 24.7293C20.233 25.977 19.3833 27.5668 19.0391 29.2974C18.6948 31.0281 18.8715 32.822 19.5468 34.4522C20.222 36.0824 21.3656 37.4758 22.8328 38.4562Z" fill="#0A1B2B" stroke="#F2F0ED" stroke-width="0.4"/>
<path d="M5.90735 9.0099C5.71925 8.8218 5.61357 8.56668 5.61357 8.30066C5.61357 8.03465 5.71925 7.77953 5.90735 7.59143C6.09545 7.40333 6.35057 7.29766 6.61658 7.29766H48.9624C49.2285 7.29766 49.4836 7.40333 49.6717 7.59143C49.8598 7.77953 49.9655 8.03465 49.9655 8.30066C49.9655 8.56668 49.8598 8.8218 49.6717 9.0099C49.4836 9.198 49.2285 9.30367 48.9624 9.30367H6.61658C6.35057 9.30367 6.09545 9.198 5.90735 9.0099Z" fill="#0A1B2B" stroke="#F2F0ED" stroke-width="0.4"/>
<path d="M43.6565 1.91224C43.4684 2.10034 43.2133 2.20601 42.9473 2.20601H12.6315C12.3655 2.20601 12.1103 2.10034 11.9222 1.91224C11.7341 1.72414 11.6285 1.46902 11.6285 1.20301C11.6285 0.936993 11.7341 0.681874 11.9222 0.493774C12.1103 0.305673 12.3655 0.2 12.6315 0.2H42.9473C43.2133 0.2 43.4684 0.305673 43.6565 0.493774C43.8446 0.681874 43.9503 0.936993 43.9503 1.20301C43.9503 1.46902 43.8446 1.72414 43.6565 1.91224Z" fill="#0A1B2B" stroke="#F2F0ED" stroke-width="0.4"/>
</svg>
