<svg width="58" height="52" viewBox="0 0 58 52" fill="none" xmlns="http://www.w3.org/2000/svg">
<path d="M55.1418 35.1951H50.064H48.3185V23.3049C48.3185 22.1951 47.3664 21.2439 46.2557 21.2439H41.1779H36.1001H32.6884V9.03658C32.6884 7.60976 31.4983 6.42073 30.0702 6.42073H25.2304C24.913 5.07317 23.7229 4.12195 22.2948 4.12195H19.4385V3.09146C19.4385 1.42683 18.0897 0 16.3442 0C14.5987 0 13.2499 1.34756 13.2499 3.09146V4.12195H10.3936C8.96551 4.12195 7.7754 5.07317 7.45803 6.42073H2.61825C1.19011 6.42073 0 7.60976 0 9.03658V47.561C0 48.9878 1.19011 50.1768 2.61825 50.1768H20.1526C20.2319 51.2073 21.1047 52 22.2154 52H37.3695C37.8456 52 38.3216 51.8415 38.639 51.5244C38.9563 51.7622 39.4324 52 39.9084 52H55.0625C56.1733 52 57.1254 51.0488 57.1254 49.939V37.2561C57.2047 36.0671 56.2526 35.1951 55.1418 35.1951ZM45.7796 36.7805H47.5251H49.2706V40.7439L48.0012 39.7927C47.8425 39.7134 47.6838 39.6341 47.5251 39.6341C47.3665 39.6341 47.2078 39.7134 47.0491 39.7927L45.7796 40.7439V36.7805ZM46.7317 23.2256V35.1158H44.9862H39.9084C39.7497 35.1158 39.6704 35.1158 39.5117 35.1158C39.4324 35.1158 39.4324 35.1158 39.4324 35.1158C39.353 35.1158 39.2737 35.1951 39.1944 35.1951C39.115 35.1951 39.115 35.1951 39.0357 35.2744C38.9563 35.2744 38.877 35.3537 38.7976 35.3537L38.7183 35.4329C38.7183 35.4329 38.639 35.4329 38.639 35.5122C38.639 35.5122 38.5596 35.5122 38.5596 35.4329L38.4803 35.3537C38.4009 35.2744 38.3216 35.2744 38.2423 35.2744C38.1629 35.2744 38.1629 35.2744 38.0836 35.1951C38.0042 35.1951 37.9249 35.1158 37.8456 35.1158H37.7662C37.6075 35.1158 37.5282 35.1158 37.3695 35.1158H32.2917H30.5462V23.2256C30.5462 22.9878 30.7842 22.75 31.0222 22.75H31.895H35.3067V28.2988C35.3067 28.6159 35.4653 28.8537 35.7827 29.0122C36.0207 29.1707 36.3381 29.0915 36.5761 28.9329L38.639 27.3476L40.7018 28.9329C40.8605 29.0122 41.0192 29.0915 41.1779 29.0915C41.3366 29.0915 41.4159 29.0915 41.4952 29.0122C41.7333 28.8537 41.9713 28.6159 41.9713 28.2988V22.75H46.2557C46.573 22.75 46.7317 22.9878 46.7317 23.2256ZM28.0866 36.7805H29.8321H31.5776V40.7439L30.3082 39.7927C29.9908 39.5549 29.6735 39.5549 29.3561 39.7927L28.0866 40.7439V36.7805ZM40.4638 22.75V26.7134L39.1944 25.7622C39.0357 25.6829 38.877 25.6037 38.7183 25.6037C38.5596 25.6037 38.4009 25.6829 38.2423 25.7622L36.9728 26.7927V22.8293H40.4638V22.75ZM10.473 5.70732H14.1227C14.5987 5.70732 14.9161 5.39024 14.9161 4.91463V3.09146C14.9161 2.29878 15.5508 1.58537 16.4235 1.58537C17.2963 1.58537 17.931 2.21951 17.931 3.09146V4.91463C17.931 5.39024 18.2484 5.70732 18.7244 5.70732H22.3741C23.1675 5.70732 23.8816 6.34146 23.8816 7.21341C23.8816 8.00609 23.2469 8.71951 22.3741 8.71951H10.473C9.67958 8.71951 8.96551 8.08536 8.96551 7.21341C8.96551 6.34146 9.67958 5.70732 10.473 5.70732ZM1.66616 47.561V9.03658C1.66616 8.48171 2.1422 8.00609 2.69759 8.00609H7.45803C7.45803 8.08536 7.53738 8.16463 7.53738 8.32317C7.53738 8.40244 7.53738 8.40244 7.61672 8.48171C7.69606 8.64024 7.7754 8.79878 7.85474 8.95732C7.85474 8.95732 7.85474 9.03658 7.93408 9.03658C8.01342 9.19512 8.09276 9.27439 8.25144 9.35366C8.33078 9.43293 8.33078 9.43293 8.41012 9.51219C8.48946 9.59146 8.56881 9.67073 8.72749 9.75C8.80683 9.82927 8.80683 9.82927 8.88617 9.82927C8.96551 9.90854 9.12419 9.90853 9.20353 9.9878C9.28287 9.9878 9.36221 10.0671 9.36221 10.0671C9.44156 10.1463 9.60024 10.1463 9.67958 10.1463C9.75892 10.1463 9.75892 10.1463 9.83826 10.2256C9.99694 10.2256 10.235 10.3049 10.3936 10.3049H22.2948C22.4534 10.3049 22.6915 10.3049 22.8501 10.2256C22.9295 10.2256 22.9295 10.2256 23.0088 10.1463C23.1675 10.1463 23.2469 10.0671 23.4055 10.0671C23.4849 10.0671 23.5642 9.9878 23.5642 9.9878C23.6436 9.90853 23.8022 9.90854 23.8816 9.82927C23.9609 9.82927 23.9609 9.75 24.0403 9.75C24.1196 9.67073 24.1989 9.59146 24.3576 9.51219C24.437 9.43293 24.437 9.43293 24.5163 9.35366C24.5956 9.27439 24.7543 9.11585 24.8337 8.95732C24.8337 8.95732 24.8337 8.87805 24.913 8.87805C24.9923 8.71951 25.0717 8.56097 25.151 8.40244C25.151 8.32317 25.151 8.32317 25.2304 8.2439C25.2304 8.16463 25.3097 8.08537 25.3097 7.92683H30.0702C30.6255 7.92683 31.1016 8.40244 31.1016 8.95732V21.0854H31.0222C29.9115 21.0854 28.9594 22.0366 28.9594 23.1463V35.0366H27.2139H22.1361C21.9774 35.0366 21.8187 35.0366 21.66 35.1158C21.5807 35.1158 21.5807 35.1158 21.5014 35.1951C21.422 35.1951 21.2633 35.2744 21.184 35.2744C21.1047 35.2744 21.1047 35.3537 21.0253 35.3537C20.946 35.4329 20.8666 35.4329 20.7873 35.5122L20.7079 35.5915H9.99694C8.56881 35.5915 7.37869 36.7805 7.37869 38.2073C7.37869 39.6341 8.56881 40.8232 9.99694 40.8232H20.1526V48.4329H2.69759C2.1422 48.5915 1.66616 48.1158 1.66616 47.561ZM20.1526 39.3963H9.99694C9.44155 39.3963 8.96551 38.9207 8.96551 38.3658C8.96551 37.811 9.44155 37.3354 9.99694 37.3354H20.1526V39.3963ZM37.4489 50.4146H22.2154C21.9774 50.4146 21.7394 50.1768 21.7394 49.939V49.3841V40.189V37.2561C21.7394 37.1768 21.7394 37.0976 21.8187 37.0183C21.8187 37.0183 21.8187 36.939 21.8981 36.939C21.8981 36.939 21.9774 36.8598 22.0567 36.8598C22.1361 36.8598 22.1361 36.8598 22.2154 36.8598H26.4998V42.4085C26.4998 42.7256 26.6585 42.9634 26.9759 43.1219C27.0552 43.2012 27.2139 43.2012 27.2932 43.2012C27.4519 43.2012 27.6106 43.1219 27.7693 43.0427L29.8321 41.4573L31.895 43.0427C32.133 43.2012 32.4504 43.2805 32.6884 43.1219C32.9264 42.9634 33.1645 42.7256 33.1645 42.4085V36.8598H37.4489C37.6869 36.8598 37.9249 37.0976 37.9249 37.3354V50.0183C37.9249 50.1768 37.6869 50.4146 37.4489 50.4146ZM55.6179 49.939C55.6179 50.1768 55.3799 50.4146 55.1418 50.4146H39.9878C39.7497 50.4146 39.5117 50.1768 39.5117 49.939V37.2561C39.5117 37.0183 39.7497 36.7805 39.9878 36.7805H44.2722V42.3293C44.2722 42.6463 44.4308 42.8841 44.7482 43.0427C44.8275 43.1219 44.9862 43.1219 45.0656 43.1219C45.2242 43.1219 45.3829 43.0427 45.5416 42.9634L47.6045 41.378L49.6673 42.9634C49.9054 43.1219 50.2227 43.2012 50.4607 43.0427C50.6988 42.8841 50.9368 42.6463 50.9368 42.3293V36.7805H55.2212C55.4592 36.7805 55.6972 37.0183 55.6972 37.2561V49.939H55.6179Z" fill="#0A1B2B"/>
<path d="M9.99666 20.8484H22.7705C24.1987 20.8484 25.3888 19.6594 25.3888 18.2326C25.3888 16.8057 24.1987 15.6167 22.7705 15.6167H9.99666C8.56853 15.6167 7.37842 16.8057 7.37842 18.2326C7.37842 19.6594 8.56853 20.8484 9.99666 20.8484ZM9.99666 17.2021H22.7705C23.3259 17.2021 23.802 17.6777 23.802 18.2326C23.802 18.7874 23.3259 19.263 22.7705 19.263H9.99666C9.44128 19.263 8.96523 18.7874 8.96523 18.2326C8.96523 17.6777 9.44128 17.2021 9.99666 17.2021Z" fill="#0A1B2B"/>
<path d="M9.99666 30.9138H22.7705C24.1987 30.9138 25.3888 29.7248 25.3888 28.298C25.3888 26.8712 24.1987 25.6821 22.7705 25.6821H9.99666C8.56853 25.6821 7.37842 26.8712 7.37842 28.298C7.37842 29.7248 8.56853 30.9138 9.99666 30.9138ZM9.99666 27.2675H22.7705C23.3259 27.2675 23.802 27.7431 23.802 28.298C23.802 28.8529 23.3259 29.3285 22.7705 29.3285H9.99666C9.44128 29.3285 8.96523 28.8529 8.96523 28.298C8.96523 27.7431 9.44128 27.2675 9.99666 27.2675Z" fill="#0A1B2B"/>
</svg>
