<svg width="38" height="57" viewBox="0 0 38 57" fill="none" xmlns="http://www.w3.org/2000/svg">
<path d="M31.1419 1.89319L27.2243 0.0836687C27.1052 0.0285497 26.9755 0 26.8443 0C26.713 0 26.5834 0.0285497 26.4643 0.0836687L22.9267 1.72129L19.389 0.0836687C19.2699 0.0285497 19.1403 0 19.009 0C18.8778 0 18.7481 0.0285497 18.629 0.0836687L15.0824 1.72129L11.5448 0.0836687C11.4257 0.0285497 11.296 0 11.1648 0C11.0335 0 10.9039 0.0285497 10.7848 0.0836687L6.8581 1.89319C6.70105 1.96587 6.56814 2.08207 6.47513 2.228C6.38211 2.37393 6.33291 2.54347 6.33333 2.71653V6.33557H4.52381C3.32402 6.33557 2.17337 6.81219 1.32499 7.66057C0.476614 8.50895 0 9.65959 0 10.8594V51.5737C0 52.7735 0.476614 53.9241 1.32499 54.7725C2.17337 55.6209 3.32402 56.0975 4.52381 56.0975H33.4762C34.676 56.0975 35.8266 55.6209 36.675 54.7725C37.5234 53.9241 38 52.7735 38 51.5737V10.8594C38 9.65959 37.5234 8.50895 36.675 7.66057C35.8266 6.81219 34.676 6.33557 33.4762 6.33557H31.6667V2.71653C31.6671 2.54347 31.6179 2.37393 31.5249 2.228C31.4319 2.08207 31.299 1.96587 31.1419 1.89319ZM11.1648 1.89319L14.7024 3.53081C14.8215 3.58593 14.9511 3.61448 15.0824 3.61448C15.2136 3.61448 15.3433 3.58593 15.4624 3.53081L19 1.90224L22.5376 3.53986C22.6567 3.59498 22.7864 3.62353 22.9176 3.62353C23.0489 3.62353 23.1785 3.59498 23.2976 3.53986L26.8443 1.90224L29.8571 3.29557V13.5737H8.14286V3.29557L11.1648 1.89319ZM33.4762 8.1451C34.1961 8.1451 34.8865 8.43107 35.3955 8.94009C35.9045 9.44912 36.1905 10.1395 36.1905 10.8594V51.5737C36.1905 52.2935 35.9045 52.9839 35.3955 53.493C34.8865 54.002 34.1961 54.288 33.4762 54.288H4.52381C3.80394 54.288 3.11355 54.002 2.60452 53.493C2.09549 52.9839 1.80952 52.2935 1.80952 51.5737V10.8594C1.80952 10.1395 2.09549 9.44912 2.60452 8.94009C3.11355 8.43107 3.80394 8.1451 4.52381 8.1451H6.33333V13.5737H4.52381V15.3832H33.4762V13.5737H31.6667V8.1451H33.4762Z" fill="#0A1B2B"/>
<path d="M32.5712 18.0979H5.42832C5.18836 18.0979 4.95823 18.1932 4.78856 18.3629C4.61888 18.5326 4.52356 18.7627 4.52356 19.0027V30.7646C4.52356 31.0045 4.61888 31.2347 4.78856 31.4043C4.95823 31.574 5.18836 31.6693 5.42832 31.6693H32.5712C32.8111 31.6693 33.0413 31.574 33.2109 31.4043C33.3806 31.2347 33.4759 31.0045 33.4759 30.7646V19.0027C33.4759 18.7627 33.3806 18.5326 33.2109 18.3629C33.0413 18.1932 32.8111 18.0979 32.5712 18.0979ZM31.6664 29.8598H6.33308V19.9074H31.6664V29.8598Z" fill="#0A1B2B"/>
<path d="M22.619 35.2882H15.3809V37.0977H22.619V35.2882Z" fill="#0A1B2B"/>
<path d="M13.5712 35.2882H6.33313V37.0977H13.5712V35.2882Z" fill="#0A1B2B"/>
<path d="M31.6666 35.2882H24.4285V37.0977H31.6666V35.2882Z" fill="#0A1B2B"/>
<path d="M22.619 39.8118H15.3809V41.6213H22.619V39.8118Z" fill="#0A1B2B"/>
<path d="M13.5712 39.8118H6.33313V41.6213H13.5712V39.8118Z" fill="#0A1B2B"/>
<path d="M31.6666 39.8118H24.4285V41.6213H31.6666V39.8118Z" fill="#0A1B2B"/>
<path d="M22.619 44.3359H15.3809V46.1455H22.619V44.3359Z" fill="#0A1B2B"/>
<path d="M22.619 48.8595H15.3809V50.669H22.619V48.8595Z" fill="#0A1B2B"/>
<path d="M13.5712 44.3359H6.33313V46.1455H13.5712V44.3359Z" fill="#0A1B2B"/>
<path d="M31.6666 44.3359H24.4285V46.1455H31.6666V44.3359Z" fill="#0A1B2B"/>
</svg>
