<svg width="79" height="65" viewBox="0 0 79 65" fill="none" xmlns="http://www.w3.org/2000/svg">
<path d="M18.9872 45.06C18.8052 44.2367 18.7901 43.3067 18.7901 42.3463V39.8612C18.7901 38.1842 18.8963 38.0929 20.6718 37.8183V36.9648H13.5093V37.8183C16.3317 38.0777 16.5594 38.2453 16.5594 40.3032V42.5751C16.5594 43.8402 16.2257 44.1603 15.5731 44.4653C14.9206 44.8007 14.0252 45.0296 12.9478 45.0296C7.34855 45.0296 4.84472 40.2271 4.84472 36.0958C4.84472 30.7597 8.07674 27.5733 12.5533 27.5733C15.2392 27.5733 17.3788 28.3966 18.1377 32.0097L18.9872 31.8726C18.7598 29.9973 18.6079 28.3661 18.5321 27.3448C17.6065 27.0855 15.3454 26.4604 12.9175 26.4604C7.5154 26.4604 2.12842 29.662 2.12842 36.4313C2.12842 42.087 6.30145 46.1424 12.523 46.1424C14.8144 46.1424 17.1512 45.5174 18.9872 45.06Z" fill="#002365"/>
<path d="M22.4792 27.8021C24.8768 28.0004 25.1348 28.1071 25.1348 30.5463V42.0263C25.1348 44.4958 24.8768 44.6332 22.4792 44.7854V45.6852H29.9451V44.7854C27.578 44.6332 27.3047 44.5266 27.3047 42.0263V30.5463C27.3047 28.1071 27.578 28.0004 29.9451 27.8021V26.918H22.4792V27.8021Z" fill="#002365"/>
<path d="M37.9581 27.9699H40.4175C42.5267 27.9699 43.1187 28.1682 43.5436 28.9608C43.938 29.5859 44.0444 30.0889 44.3328 31.3085L45.228 31.2172C45.1219 29.8298 44.9699 28.0765 44.9549 26.918H32.3587V27.8021C34.6045 28.0004 34.8625 28.1071 34.8625 30.5463V42.0263C34.8625 44.4654 34.6045 44.6332 32.2676 44.7854V45.6852H40.0227V44.7854C37.3055 44.6027 37.0324 44.4654 37.0324 42.0263V36.8276H40.099C42.6634 36.8276 42.7848 37.1019 43.1795 39.1448H44.0747V33.5344H43.1795C42.7848 35.4405 42.6634 35.669 40.099 35.669H37.0324V28.8389C37.0324 28.0461 37.1084 27.9699 37.9581 27.9699Z" fill="#002365"/>
<path d="M47.5358 26.2168C47.4753 27.8175 47.3083 29.6623 47.2019 31.3545H48.1278C48.4616 30.0891 48.6891 29.2964 49.0077 28.8086C49.372 28.1683 49.9637 27.9701 52.1338 27.9701H54.152V42.0872C54.152 44.3894 53.9092 44.6333 51.2232 44.7856V45.6853H59.3722V44.7856C56.5797 44.6333 56.3523 44.359 56.3523 42.0872V27.9701H58.5222C60.6923 27.9701 61.0867 28.1683 61.5419 28.839C61.8758 29.2964 62.1036 29.9823 62.3765 31.3545L63.3174 31.2173C63.1657 29.6319 63.029 27.5736 63.029 26.2168H62.3612C61.9366 26.7503 61.7697 26.9181 61.0109 26.9181H49.7362C48.9471 26.9181 48.583 26.857 48.1581 26.2168H47.5358Z" fill="#002365"/>
<path d="M71.1188 45.0296C68.1901 45.0296 67.0217 42.2089 66.5514 40.456L65.6409 40.6387C65.838 42.148 66.1869 44.435 66.4297 45.0905C66.6878 45.1974 67.1128 45.4562 67.7652 45.6544C68.4329 45.8528 69.3889 46.1424 70.6027 46.1424C74.3208 46.1424 76.8546 43.7944 76.8546 40.6694C76.8546 37.3305 73.9563 36.0346 71.8776 35.0134C69.7075 33.8852 68.2659 32.8636 68.2659 30.6834C68.2659 29.2351 69.1765 27.5124 71.483 27.5124C74.0171 27.5124 74.6394 29.5249 75.1095 31.3084L76.0506 31.156C75.8228 29.2657 75.6558 28.1681 75.5647 27.1465C74.2445 26.6891 73.1067 26.4604 71.9837 26.4604C68.357 26.4604 66.1869 28.8083 66.1869 31.5525C66.1869 34.8761 69.1918 36.2635 70.891 37.1629C73.0308 38.3214 74.6394 39.3123 74.6394 41.5534C74.6394 43.6422 73.3646 45.0296 71.1188 45.0296Z" fill="#002365"/>
<path d="M3.98909 57.7709C3.79415 57.8669 3.58183 57.9153 3.35777 57.9153C3.23842 57.9153 3.04126 57.8852 2.77259 57.8265C2.44025 57.7494 2.2247 57.7119 2.11369 57.7119C1.92522 57.7119 1.6402 57.779 1.24231 57.9173C0.666495 58.1175 0.618652 58.198 0.618652 58.2692C0.618652 58.2752 0.619504 58.2815 0.621206 58.2872C0.632443 58.3256 0.661217 58.353 0.70259 58.3646C0.745495 58.3773 0.782271 58.3566 0.80117 58.3412C0.97909 58.2483 1.16859 58.2016 1.36439 58.2016C1.48408 58.2016 1.6734 58.2314 1.92726 58.2902C2.1503 58.3412 2.36687 58.3674 2.57084 58.3674C2.79115 58.3674 3.1126 58.3022 3.52633 58.1739C4.13551 57.9851 4.18591 57.9047 4.18591 57.8325C4.18591 57.7403 4.08052 57.7085 3.98909 57.7709Z" fill="#002365"/>
<path d="M24.8024 59.104C24.4396 59.5744 24.0545 59.8129 23.6578 59.8129C23.4577 59.8129 23.2956 59.7522 23.1616 59.6268C23.0292 59.5033 22.9647 59.3536 22.9647 59.1694C22.9647 59.128 22.9689 59.0869 22.9769 59.0462C23.0249 58.9607 23.061 58.8721 23.0893 58.7809C23.1116 58.7472 23.1351 58.7134 23.163 58.6803C23.2958 58.5237 23.4543 58.4231 23.6338 58.3813C24.1495 58.2695 24.4108 58.0456 24.4108 57.7165C24.4108 57.6022 24.371 57.502 24.2918 57.4175C24.7311 56.88 25.0743 56.4549 25.3348 56.1265C25.3282 56.2328 25.3248 56.3518 25.3248 56.4816C25.3248 56.7584 25.3299 56.9738 25.3401 57.1222C25.3498 57.2695 25.3547 57.4188 25.3547 57.5658C25.3547 58.1107 25.169 58.6282 24.8024 59.104ZM21.8125 59.104C21.4497 59.5744 21.0646 59.8129 20.6679 59.8129C20.4678 59.8129 20.3057 59.7522 20.1717 59.6268C20.0393 59.5033 19.9747 59.3536 19.9747 59.1694C19.9747 59.0004 20.0415 58.8357 20.1731 58.6803C20.3059 58.5237 20.4644 58.4231 20.6439 58.3813C21.1596 58.2695 21.4209 58.0456 21.4209 57.7165C21.4209 57.6022 21.3811 57.502 21.3019 57.4175C21.7412 56.88 22.0844 56.4549 22.3449 56.1265C22.3383 56.2328 22.3349 56.3518 22.3349 56.4816C22.3349 56.7584 22.34 56.9738 22.35 57.1222C22.3599 57.2695 22.3648 57.4188 22.3648 57.5658C22.3648 58.1107 22.1791 58.6282 21.8125 59.104ZM7.88314 59.6776C6.03516 59.6776 5.64731 59.393 5.64731 59.1543C5.64731 58.9072 5.95582 58.782 6.56466 58.782C7.15376 58.782 8.26367 59.0351 9.86615 59.5349C9.26462 59.6295 8.59908 59.6776 7.88314 59.6776ZM18.2585 51.3738C18.8871 50.6345 19.3826 50.2596 19.7311 50.2596C19.8276 50.2596 19.847 50.2984 19.847 50.3612C19.847 50.6552 19.459 51.2606 18.6934 52.1603C17.9873 52.9898 17.2409 53.7388 16.4715 54.3893C17.1231 53.0182 17.7238 52.0047 18.2585 51.3738ZM19.0417 56.4893C19.4599 56.1322 19.7978 55.9512 20.0459 55.9512C20.2208 55.9512 20.2443 56.0407 20.2443 56.1279C20.2443 56.4052 20.0016 56.7102 19.523 57.0346C19.0722 57.3403 18.5226 57.5859 17.8874 57.7656C18.2642 57.2509 18.652 56.8222 19.0417 56.4893ZM26.5241 54.5958C26.5241 54.4731 26.4555 54.4001 26.3404 54.4001C26.1492 54.4001 25.9576 54.5359 25.771 54.8039C25.5946 55.0568 25.4613 55.3635 25.375 55.7153C25.0811 56.0892 24.8424 56.3862 24.6649 56.5993L24.095 57.3006C24.0591 57.2892 24.0206 57.2835 23.9799 57.2835C23.6753 57.2835 23.3796 57.472 23.1009 57.8434C23.0886 57.8598 23.078 57.8766 23.0663 57.8928C23.0341 57.7863 22.9956 57.6754 22.9447 57.5562C22.6844 56.9348 22.5525 56.4767 22.5525 56.1958C22.5525 56.0898 22.5661 55.9639 22.5925 55.8215C23.4361 55.015 23.5342 54.7357 23.5342 54.5958C23.5342 54.4731 23.4656 54.4001 23.3505 54.4001C23.1593 54.4001 22.9677 54.5359 22.7811 54.8039C22.6047 55.0568 22.4714 55.3635 22.3851 55.7153C22.0911 56.0892 21.8525 56.3862 21.6749 56.5993L21.1049 57.3006C21.0692 57.2892 21.0307 57.2835 20.99 57.2835C20.6854 57.2835 20.3897 57.472 20.1109 57.8434C19.8891 58.1395 19.7573 58.4458 19.7142 58.7578C19.0087 59.4886 18.3872 59.858 17.8584 59.858C17.8428 59.858 17.8297 59.856 17.8145 59.8557C17.8486 59.8055 17.8579 59.7684 17.8579 59.7378C17.8579 59.7308 17.8567 59.7238 17.8545 59.7173C17.8431 59.6836 17.8157 59.6579 17.7728 59.6405C17.7455 59.6299 17.7362 59.6247 17.624 59.6899C17.5838 59.7263 17.5428 59.7595 17.5016 59.7922C17.3156 59.7073 17.2247 59.539 17.2247 59.2748C17.2247 58.9475 17.3877 58.5317 17.7091 58.0375C18.7955 57.8181 19.5842 57.5783 20.0536 57.3249C20.5432 57.0606 20.7916 56.7315 20.7916 56.3463C20.7916 56.1717 20.7196 56.0224 20.5778 55.9021C20.4392 55.7844 20.2703 55.7251 20.0759 55.7251C19.6521 55.7251 19.0998 55.9101 18.4341 56.2748C17.1641 56.9715 16.52 57.7933 16.52 58.7178C16.52 59.1143 16.6457 59.4497 16.8936 59.714C16.9964 59.824 17.1105 59.9097 17.2341 59.9745C16.9312 60.1511 16.6048 60.2422 16.2583 60.2422C15.9049 60.2422 15.5303 60.1984 15.1447 60.1119C14.7694 60.0277 13.6472 59.7361 11.8074 59.2443C12.8361 58.9489 13.6726 58.4995 14.2964 57.9063C14.9615 57.2734 15.6146 56.2589 16.2379 54.8898C17.0575 54.2841 17.9124 53.4663 18.779 52.4583C19.6693 51.4229 20.1021 50.737 20.1021 50.3612C20.1021 50.1452 19.9703 50.0261 19.7311 50.0261C19.2185 50.0261 18.5097 50.5102 17.5642 51.5066C17.0894 52.0086 16.6763 52.5127 16.3367 53.0048C15.9835 53.514 15.4098 54.4367 14.6312 55.7471C13.7033 56.5348 12.9122 57.0943 12.2802 57.4105C11.6503 57.7259 11.0082 57.8855 10.3716 57.8855C9.63681 57.8855 9.05231 57.6961 8.6345 57.3224C8.21855 56.9505 8.0076 56.4296 8.0076 55.7742C8.0076 54.357 8.61338 52.9735 9.80809 51.6619C11.0013 50.352 12.2649 49.6874 13.5638 49.6874C14.0938 49.6874 14.5343 49.8501 14.8728 50.1705C15.2099 50.4902 15.381 50.9041 15.381 51.4002C15.381 52.3384 14.916 53.3539 13.999 54.4184C13.0844 55.4801 12.2144 56.0186 11.4133 56.0186C11.0762 56.0186 10.7917 55.9178 10.5676 55.7184C10.3427 55.5189 10.2332 55.2761 10.2332 54.976C10.2332 54.7177 10.2727 54.6042 10.3151 54.579C10.3201 54.5992 10.3257 54.6416 10.3229 54.7248C10.3173 54.8506 10.3478 54.9495 10.4139 55.0188C10.4844 55.0929 10.5938 55.1307 10.7389 55.1307C10.9064 55.1307 11.0581 55.0592 11.1901 54.9186C11.3208 54.7788 11.3872 54.6158 11.3872 54.4341C11.3872 54.0917 11.2045 53.9105 10.8588 53.9105C10.6105 53.9105 10.3936 54.0185 10.2143 54.2306C10.0378 54.4401 9.94821 54.6907 9.94821 54.976C9.94821 55.3445 10.0875 55.6592 10.3623 55.9117C10.6354 56.1626 10.974 56.2899 11.3683 56.2899C12.2775 56.2899 13.2291 55.728 14.1963 54.6196C15.1615 53.5134 15.651 52.4253 15.651 51.385C15.651 50.7863 15.4457 50.3037 15.0408 49.9514C14.6383 49.6012 14.0935 49.4238 13.4217 49.4238C11.9826 49.4238 10.6001 50.0453 9.31246 51.2707C8.02378 52.4973 7.3705 53.8148 7.3705 55.1868C7.3705 56.0889 7.64018 56.8159 8.17224 57.3477C8.70413 57.8798 9.42654 58.1494 10.3192 58.1494C11.5205 58.1494 12.8195 57.586 14.1848 56.4727C13.6518 57.2534 13.1979 57.8314 12.8324 58.1942C12.4183 58.6053 11.9389 58.9205 11.4073 59.1324C9.5779 58.6547 8.18042 58.4128 7.2537 58.4128C6.0011 58.4128 5.39209 58.6552 5.39209 59.1543C5.39209 59.6839 6.18243 59.9412 7.80823 59.9412C8.68608 59.9412 9.55185 59.8584 10.3815 59.695C11.6694 60.1076 12.6415 60.3825 13.2715 60.5121C13.9072 60.6428 14.5769 60.7092 15.262 60.7092C16.2045 60.7092 16.9351 60.5349 17.4336 60.1911C17.485 60.1547 17.5291 60.122 17.569 60.0912C17.65 60.1062 17.734 60.1146 17.8213 60.1146C18.3694 60.1146 18.9995 59.7688 19.7015 59.088C19.7221 59.3822 19.8288 59.6239 20.0205 59.8069C20.2342 60.011 20.5226 60.1146 20.8776 60.1146C21.4882 60.1146 22.0243 59.9429 22.4709 59.6047C22.5727 59.5276 22.6614 59.4463 22.7404 59.3622C22.7925 59.5353 22.8822 59.6843 23.0105 59.8069C23.2241 60.011 23.5125 60.1146 23.8675 60.1146C24.4783 60.1146 25.0142 59.9429 25.4608 59.6047C25.9129 59.2619 26.1419 58.8497 26.1419 58.3789C26.1419 58.1556 26.072 57.8784 25.9346 57.5562C25.6743 56.9348 25.5424 56.4767 25.5424 56.1958C25.5424 56.0898 25.556 55.9639 25.5824 55.8215C26.426 55.015 26.5241 54.7357 26.5241 54.5958Z" fill="#002365"/>
<path d="M34.1851 57.9336C34.4837 58.3014 34.862 58.4878 35.31 58.4878C35.6289 58.4878 35.9112 58.384 36.1495 58.1787C36.3906 57.9709 36.5129 57.7217 36.5129 57.4374C36.5129 56.9427 36.2173 56.8387 35.9694 56.8387C35.7928 56.8387 35.6389 56.9032 35.5121 57.0308C35.3852 57.158 35.3211 57.3178 35.3211 57.5053C35.3211 57.9004 35.5473 57.9834 35.737 57.9834C35.8713 57.9834 35.9757 57.9546 36.0479 57.8978C36.023 57.9445 35.9626 58.0063 35.8293 58.0819C35.6628 58.1762 35.4981 58.2239 35.3398 58.2239C34.9982 58.2239 34.7304 58.0882 34.5217 57.8092C34.3112 57.5284 34.2047 57.1551 34.2047 56.6998C34.2047 55.5385 34.8149 54.3287 36.0184 53.1046C37.2218 51.8809 38.4078 51.2605 39.5438 51.2605C40.1482 51.2605 40.6323 51.4403 40.9828 51.795C41.3303 52.1469 41.5083 52.6293 41.5111 53.2293C41.1584 53.9506 40.5795 54.5396 39.79 54.9799C39.6815 55.0413 39.6374 55.0878 39.6374 55.1412C39.6374 55.2168 39.6861 55.2655 39.7614 55.2655C39.8722 55.2655 40.0893 55.2003 40.6932 54.6348C41.0244 54.3251 41.2821 54.0425 41.463 53.7909C41.2495 55.2529 40.476 56.6735 39.1609 58.0174C37.7663 59.4433 36.3622 60.1662 34.9877 60.1662C34.3198 60.1662 33.7669 59.9377 33.3443 59.4871C32.9207 59.035 32.7061 58.4401 32.7061 57.7181C32.7061 56.5671 33.0833 55.3865 33.8279 54.2088C34.5389 53.0685 35.4627 52.1211 36.5736 51.3924C37.7317 50.6355 38.8927 50.2516 40.0241 50.2516C40.5848 50.2516 41.0424 50.4021 41.3835 50.6989C41.7221 50.9935 41.8937 51.3891 41.8937 51.8739C41.8937 52.0082 41.8794 52.1435 41.8517 52.2781C41.6799 51.9283 41.4018 51.6363 41.0234 51.4088C40.5858 51.1452 40.083 51.012 39.5288 51.012C38.2439 51.012 36.9445 51.632 35.6667 52.855C34.3882 54.0791 33.7399 55.3269 33.7399 56.5641C33.7399 57.109 33.8897 57.5698 34.1851 57.9336ZM42.2235 53.8613C42.2235 53.4712 42.1564 53.0726 42.024 52.6766C42.1014 52.3646 42.1411 52.0894 42.1411 51.8588C42.1411 51.2791 41.9249 50.8087 41.4992 50.4613C41.0773 50.1172 40.5076 49.9429 39.8063 49.9429C39.1079 49.9429 38.3152 50.1013 37.4501 50.4133C36.5868 50.7249 35.7986 51.1382 35.1081 51.6411C34.1362 52.3356 33.3535 53.1754 32.7822 54.1373C32.2094 55.1015 31.9189 56.0623 31.9189 56.9935C31.9189 58.014 32.2133 58.8545 32.7937 59.4907C33.3757 60.1292 34.1441 60.4529 35.0776 60.4529C35.7823 60.4529 36.566 60.2674 37.4072 59.9017C38.2458 59.5372 39.0415 59.036 39.7725 58.4125C40.5342 57.7682 41.1395 57.0366 41.5714 56.2371C42.004 55.4359 42.2235 54.6367 42.2235 53.8613Z" fill="#002365"/>
<path d="M52.9507 54.2636C52.7838 54.4285 52.6992 54.6051 52.6992 54.7874C52.6992 55.0474 52.8416 55.1904 53.1004 55.1904C53.2922 55.1904 53.4702 55.1064 53.6297 54.9412C53.788 54.7768 53.8686 54.5957 53.8686 54.4036C53.8686 54.1533 53.7312 54.0156 53.4824 54.0156C53.2958 54.0156 53.117 54.0993 52.9507 54.2636Z" fill="#02466D"/>
<path d="M67.7704 63.9289C67.261 64.4894 66.745 64.7737 66.2364 64.7737C65.8504 64.7737 65.6708 64.6146 65.6708 64.2732C65.6708 63.4006 66.8061 62.3913 69.045 61.2741C69.3254 61.1349 69.5396 61.0276 69.6855 60.9531C68.9277 62.3632 68.2836 63.3642 67.7704 63.9289ZM62.0416 58.1748C61.004 59.5783 60.5225 59.873 60.3017 59.873C60.0485 59.873 59.9309 59.7377 59.9309 59.4476C59.9309 58.9085 60.3027 58.1851 61.0362 57.2978C61.7668 56.4142 62.3591 55.9659 62.797 55.9659C62.9858 55.9659 63.0703 56.0601 63.0703 56.2705C63.0703 56.6063 62.7241 57.247 62.0416 58.1748ZM46.4163 59.873C46.2666 59.873 46.0677 59.8272 46.0677 59.4326C46.0677 58.8984 46.4345 58.1788 47.1584 57.2937C47.8795 56.4128 48.4614 55.9659 48.8891 55.9659C49.0985 55.9659 49.1923 56.069 49.1923 56.3006C49.1923 56.5621 48.9339 57.0693 48.4248 57.8069C47.2326 59.5145 46.6744 59.873 46.4163 59.873ZM74.1458 57.4147C74.1053 57.4147 74.0658 57.4395 73.9602 57.5748C73.4455 58.24 72.9735 58.7617 72.5586 59.1259C72.1881 59.4504 71.7373 59.7584 71.2155 60.0427C72.2212 58.2309 73.0318 56.8324 73.6263 55.8832C73.6401 55.8615 73.6394 55.8341 73.6255 55.8131C73.6115 55.7924 73.5865 55.7815 73.5616 55.7857C73.3663 55.8201 73.2014 55.8376 73.0708 55.8376C72.9097 55.8376 72.7721 55.8278 72.662 55.8085C72.6364 55.8039 72.6092 55.8162 72.5959 55.8393L71.9065 57.0212C70.8048 58.9134 69.9862 59.873 69.4737 59.873C69.3055 59.873 69.2302 59.788 69.2302 59.598C69.2302 59.4623 69.3377 59.1252 69.8502 58.2917L71.3263 55.8826C71.3392 55.8612 71.3389 55.8345 71.3253 55.8135C71.3113 55.7928 71.2866 55.7815 71.2624 55.7854C71.0372 55.8201 70.8591 55.8376 70.7326 55.8376C70.5867 55.8376 70.4566 55.8278 70.3466 55.8085C70.3209 55.8039 70.2944 55.8158 70.2807 55.8389C70.2807 55.8389 69.2449 57.5507 69.1999 57.6001C68.7544 58.2289 68.3423 58.5477 67.9759 58.5477C67.8004 58.5477 67.567 58.4889 67.567 57.9797C67.567 57.8401 67.5992 57.66 67.6634 57.4441L67.7311 57.3866C67.9509 57.251 68.1162 57.1482 68.2267 57.0774C68.9473 56.614 69.2978 56.2589 69.2978 55.9922C69.2978 55.8923 69.2592 55.7247 69.0018 55.7247C68.7561 55.7247 68.492 55.879 68.1944 56.1966C67.9118 56.498 67.6717 56.8769 67.4805 57.3221C67.3697 57.4128 67.2557 57.5163 67.139 57.6316C67.3584 57.2103 67.4694 56.8528 67.4694 56.5642C67.4694 55.8702 67.108 55.7247 66.8051 55.7247C66.6142 55.7247 66.2385 55.8877 65.1846 57.2978C65.1846 57.2978 65.0446 57.4949 65.0352 57.5106C64.5844 58.1777 64.1179 58.7472 63.6815 59.2025C63.1515 59.7567 62.8918 59.873 62.7674 59.873C62.6606 59.873 62.5386 59.8398 62.5386 59.5829C62.5386 59.3501 62.7674 58.8471 63.2187 58.0879L64.5452 55.8824C64.5582 55.8607 64.5575 55.8338 64.5435 55.8131C64.5296 55.7924 64.5062 55.7821 64.4804 55.7857C64.2698 55.8201 64.0969 55.8376 63.9658 55.8376C63.8562 55.8376 63.7275 55.8205 63.5831 55.7864C63.5548 55.7798 63.5259 55.7931 63.5123 55.8191L63.3098 56.2064C63.2974 55.8909 63.1156 55.7247 62.782 55.7247C62.408 55.7247 61.9135 55.8947 61.3125 56.2294C60.3816 56.7402 59.7633 57.3108 59.4623 57.933C58.3284 59.5208 57.7737 59.873 57.5071 59.873C57.3361 59.873 57.2633 59.7998 57.2633 59.6284C57.2633 59.503 57.3836 59.1727 57.9569 58.3088C58.4278 57.5989 58.657 57.0823 58.657 56.73C58.657 56.4496 58.5761 56.2103 58.4171 56.0185C58.2552 55.8235 58.0524 55.7247 57.8135 55.7247C57.5284 55.7247 57.2175 55.8826 56.8895 56.194C56.6767 56.3957 56.4018 56.7152 56.0679 57.1471C56.1556 56.9297 56.1991 56.7416 56.1991 56.5793C56.1991 56.35 56.1339 56.1492 56.0052 55.9828C55.8733 55.8114 55.7097 55.7247 55.5198 55.7247C55.3353 55.7247 54.9687 55.8877 53.9226 57.2965C53.9226 57.2965 53.735 57.5517 53.7277 57.5674C52.3547 59.5208 51.7345 59.873 51.4448 59.873C51.245 59.873 51.1559 59.788 51.1559 59.598C51.1559 59.3902 51.2763 59.0848 51.5138 58.6905L53.2147 55.8824C53.2273 55.8612 53.2269 55.8345 53.2133 55.8138C53.1997 55.7931 53.1757 55.7815 53.1512 55.7854C52.9108 55.8201 52.7221 55.8376 52.5909 55.8376C52.5057 55.8376 52.3865 55.8205 52.2376 55.7864C52.2103 55.7794 52.1824 55.7924 52.1684 55.8165C52.1684 55.8165 51.1639 57.4959 51.1556 57.5103C49.8194 59.463 49.1857 59.873 48.8896 59.873C48.7207 59.873 48.6456 59.788 48.6456 59.598C48.6456 59.455 48.7726 59.0665 49.3786 58.0272C49.866 57.1976 51.0582 55.2683 52.922 52.2922C52.935 52.2715 52.9353 52.2455 52.9227 52.2248C52.9104 52.2041 52.8903 52.1919 52.8631 52.194C52.5319 52.2188 52.4301 52.2241 52.4036 52.2241C52.2507 52.2241 52.093 52.1996 51.9347 52.1516C51.9071 52.1422 51.8765 52.1546 51.8615 52.18L49.4317 56.2688C49.432 56.2592 49.4324 56.2498 49.4324 56.2404C49.4324 55.9031 49.2495 55.7247 48.9039 55.7247C48.4287 55.7247 47.7717 55.9992 46.9507 56.5408C46.4699 56.8565 46.1004 57.1926 45.8406 57.546C45.8249 57.5625 45.8088 57.5797 45.7904 57.6001C45.3448 58.2289 44.9328 58.5477 44.5664 58.5477C44.3905 58.5477 44.1571 58.4889 44.1571 57.9797C44.1571 57.8397 44.1896 57.6596 44.2538 57.4441L44.3212 57.3866C44.5414 57.251 44.7067 57.1482 44.8168 57.0774C45.5377 56.6136 45.8883 56.2589 45.8883 55.9922C45.8883 55.8923 45.8496 55.7247 45.5919 55.7247C45.3494 55.7247 45.0782 55.8832 44.7848 56.1966C44.5019 56.4987 44.2615 56.8772 44.0706 57.3225C43.9598 57.4131 43.8457 57.5166 43.7291 57.6319C43.9485 57.2106 44.0595 56.8528 44.0595 56.5642C44.0595 55.8702 43.6984 55.7247 43.3955 55.7247C43.2043 55.7247 42.8286 55.8877 41.7747 57.2978L41.6463 57.4786C41.6225 57.5026 41.6064 57.5341 41.5978 57.5845C41.5978 57.6386 41.6277 57.6796 41.6916 57.6937C41.7701 57.6937 41.8283 57.6165 41.8642 57.5601C42.761 56.2425 43.1594 55.9659 43.3359 55.9659C43.3885 55.9659 43.4447 55.9771 43.4447 56.1124C43.4447 56.2695 43.2864 56.7149 42.5327 57.946L41.3036 59.9485C41.2913 59.9688 41.291 59.9948 41.3032 60.0153C41.3158 60.036 41.3391 60.0494 41.3623 60.046C41.7314 60.02 41.8046 60.0162 41.8154 60.0162C41.8583 60.0162 42.0129 60.0263 42.2749 60.046C42.2766 60.0463 42.2781 60.0463 42.2798 60.0463C42.3025 60.0463 42.3234 60.0343 42.335 60.0147C42.8168 59.1857 43.1597 58.6302 43.3543 58.3638C43.5145 58.1433 43.7175 57.9182 43.9587 57.6926C43.9308 57.8254 43.9169 57.9417 43.9169 58.0399C43.9169 58.6403 44.2618 58.7665 44.5514 58.7665C44.8381 58.7665 45.141 58.6182 45.4543 58.3301C45.4093 58.4988 45.3857 58.6705 45.3857 58.8453C45.3857 59.2051 45.4812 59.5085 45.669 59.747C45.8609 59.9905 46.1023 60.1142 46.3863 60.1142C46.783 60.1142 47.338 59.6334 48.077 58.6476C48.0264 58.8183 48.0008 58.9772 48.0008 59.124C48.0008 59.4093 48.079 59.6474 48.2336 59.8315C48.3902 60.0189 48.5961 60.1142 48.8452 60.1142C49.2514 60.1142 49.8231 59.6368 50.583 58.6625C50.5108 58.8611 50.4735 59.0304 50.4735 59.169C50.4735 59.4356 50.559 59.6618 50.7272 59.8416C50.8968 60.0224 51.1106 60.1142 51.3628 60.1142C51.8845 60.1142 52.6055 59.4617 53.5675 58.1197C53.5675 58.1197 53.9262 57.6239 53.9725 57.5568C54.8876 56.2385 55.301 55.9659 55.4606 55.9659C55.5248 55.9659 55.5843 55.9855 55.5843 56.1275C55.5843 56.3013 55.4131 56.7823 54.5974 58.0883L53.4285 59.9478C53.4154 59.9688 53.4154 59.9955 53.4289 60.0165C53.4418 60.0376 53.4663 60.0487 53.4907 60.0456C53.642 60.0259 53.8055 60.0162 53.9771 60.0162C54.0251 60.0162 54.172 60.0263 54.4138 60.046C54.4387 60.0487 54.4627 60.0354 54.4746 60.0136C55.9741 57.3276 57.0899 55.9659 57.7914 55.9659C57.9698 55.9659 58.0497 56.0413 58.0497 56.2103C58.0497 56.3146 57.9463 56.5929 57.4538 57.3259C57.0644 57.8979 56.8194 58.2867 56.7259 58.4825C56.6294 58.6835 56.5809 58.9044 56.5809 59.139C56.5809 59.41 56.6631 59.6418 56.8254 59.8286C56.99 60.0179 57.1967 60.1142 57.4402 60.1142C57.803 60.1142 58.2778 59.7564 58.8918 59.0203C59.0363 58.8471 59.1611 58.6953 59.2701 58.5607C59.2572 58.6546 59.2485 58.7494 59.2485 58.8453C59.2485 59.2047 59.344 59.5082 59.5321 59.747C59.7237 59.9905 59.9648 60.1142 60.2491 60.1142C60.5142 60.1142 60.7885 59.9842 61.0641 59.728C61.2766 59.5306 61.5657 59.1857 61.9258 58.7003C61.8846 58.8524 61.864 58.9986 61.864 59.139C61.864 59.4143 61.9421 59.6471 62.0964 59.8315C62.2534 60.0189 62.4592 60.1142 62.708 60.1142C63.0713 60.1142 63.5439 59.7564 64.1524 59.0207C64.935 58.0883 65.2458 57.5779 65.2571 57.5601C66.154 56.2425 66.5693 55.9659 66.7458 55.9659C66.7984 55.9659 66.8546 55.9771 66.8546 56.1124C66.8546 56.2691 66.6963 56.7146 65.9422 57.946L64.7134 59.9485C64.7012 59.9688 64.7008 59.9948 64.7131 60.0153C64.7257 60.036 64.7497 60.0494 64.7724 60.046C65.1415 60.02 65.2142 60.0162 65.2249 60.0162C65.2545 60.0162 65.3582 60.0213 65.6844 60.046C65.6861 60.0463 65.6878 60.0463 65.6894 60.0463C65.712 60.0463 65.733 60.0343 65.7447 60.0147C66.2252 59.1878 66.5682 58.6326 66.7639 58.3638C66.9244 58.1433 67.1274 57.9182 67.3688 57.6926C67.3409 57.8254 67.3267 57.9417 67.3267 58.0399C67.3267 58.6403 67.6717 58.7665 67.961 58.7665C68.2349 58.7665 68.524 58.6315 68.8226 58.3683C68.6646 58.7047 68.5855 58.9702 68.5855 59.169C68.5855 59.4199 68.6675 59.6418 68.83 59.8286C68.9941 60.0179 69.1907 60.1142 69.4138 60.1142C69.6688 60.1142 69.9232 59.9955 70.1697 59.7613C70.3076 59.6301 70.4953 59.4132 70.7307 59.1129L69.8907 60.6137L69.7996 60.6688C69.4218 60.8384 69.1339 60.9731 68.9445 61.0683C66.5853 62.1691 65.4384 63.2125 65.4384 64.2581C65.4384 64.4663 65.5145 64.644 65.6645 64.7867C65.8135 64.928 66.0006 64.9998 66.2214 64.9998C66.8333 64.9998 67.5603 64.6633 68.382 63.9997C69.1741 63.3598 69.9433 62.3736 70.6681 61.0673L71.027 60.4209C72.0017 59.8807 72.8043 59.2673 73.413 58.5972C74.2549 57.6613 74.2549 57.5755 74.2549 57.524C74.2549 57.4588 74.211 57.4147 74.1458 57.4147Z" fill="#002365"/>
<path d="M78.1678 57.7709C77.973 57.8669 77.7608 57.9153 77.5366 57.9153C77.4173 57.9153 77.2201 57.8852 76.9514 57.8265C76.6189 57.7494 76.4034 57.7119 76.2927 57.7119C76.1041 57.7119 75.819 57.779 75.4213 57.9174C74.8452 58.1171 74.7975 58.1981 74.7975 58.2692C74.7975 58.2755 74.7982 58.2815 74.8002 58.2875C74.8115 58.3257 74.8404 58.353 74.8814 58.3647C74.9252 58.3777 74.9611 58.3566 74.9802 58.3412C75.1581 58.2483 75.3476 58.2016 75.5434 58.2016C75.6631 58.2016 75.8524 58.2314 76.1061 58.2902C76.3291 58.3412 76.546 58.3674 76.7498 58.3674C76.97 58.3674 77.2916 58.3022 77.7053 58.1739C78.3142 57.9851 78.3648 57.9047 78.3648 57.8325C78.3648 57.7407 78.2592 57.7088 78.1678 57.7709Z" fill="#002365"/>
<path d="M26.6315 15.55C26.9121 15.8022 26.859 15.5232 26.7355 15.2984C26.3991 14.685 26.1456 14.0369 26.0928 13.3183C25.8657 10.225 28.5129 9.75477 28.6147 9.73681C29.017 9.66582 28.9322 9.23733 28.7254 9.04199C28.4764 8.80679 28.1313 8.86222 27.825 8.92841C27.1271 9.07945 26.5828 9.5259 26.1124 10.0666C24.94 11.4155 24.8782 13.2128 25.9415 14.7392C26.1439 15.0311 26.3676 15.3131 26.6315 15.55Z" fill="#002365"/>
<path d="M33.5111 12.358C33.7633 12.5362 34.0413 12.664 34.3085 12.8132C34.3405 12.832 34.3793 12.8358 34.4157 12.8455C34.4205 12.8346 34.4266 12.8238 34.4324 12.8123C34.36 12.7434 34.2856 12.6731 34.2102 12.6077C33.7483 12.2044 33.3378 11.7473 33.0523 11.1699C32.6517 10.3558 32.6409 9.55206 32.9702 8.81123C33.1878 8.32065 33.4926 7.886 33.7604 7.4269C33.8031 7.35232 33.8574 7.28629 33.8976 7.20795C34.0066 6.99208 33.9206 6.81043 33.6862 6.77125C33.4161 6.72575 33.1757 6.80854 32.9663 6.9589C32.4894 7.30254 32.2291 7.84204 32.0563 8.43679C31.6267 9.92016 32.1891 11.4271 33.5111 12.358Z" fill="#002365"/>
<path d="M33.2745 19.8694C33.2837 19.4799 33.0145 19.093 32.728 19.0827C32.5021 19.075 32.326 19.3148 32.3233 19.6342C32.3195 20.038 32.5809 20.4012 32.8778 20.3998C33.1025 20.399 33.2667 20.1793 33.2745 19.8694Z" fill="#002365"/>
<path d="M30.1059 20.2614C29.8802 20.2546 29.7038 20.4567 29.7012 20.7246C29.6971 21.065 29.9588 21.3705 30.2557 21.3691C30.4803 21.3686 30.6458 21.1839 30.6526 20.9232C30.6616 20.5953 30.3937 20.2698 30.1059 20.2614Z" fill="#002365"/>
<path d="M36.1971 19.5805C36.4322 19.5853 36.6209 19.2954 36.6175 18.937C36.6124 18.5349 36.3731 18.1803 36.1125 18.1866C35.8818 18.1941 35.6967 18.4895 35.6992 18.8464C35.7025 19.2271 35.9385 19.5764 36.1971 19.5805Z" fill="#002365"/>
<path d="M47.8956 22.0691C48.0349 22.0433 48.0245 21.8602 47.851 21.7527C47.5067 21.5397 47.1463 21.3435 46.7732 21.1942C45.6034 20.7274 44.3736 20.3918 43.1309 20.2722C41.9079 20.1552 40.6862 20.1112 39.4673 20.1379C38.2482 20.1112 37.0268 20.1552 35.8036 20.2722C34.5609 20.3918 33.3311 20.7274 32.1613 21.1942C31.7883 21.3435 31.4275 21.5397 31.0836 21.7527C30.9097 21.8602 30.8995 22.0433 31.0389 22.0691C33.8807 22.5947 36.8358 22.7562 39.4673 22.7424C42.0988 22.7562 45.0536 22.5947 47.8956 22.0691Z" fill="#002365"/>
<path d="M50.3195 9.73681C50.4214 9.75477 53.0682 10.225 52.8414 13.3183C52.7886 14.0369 52.5353 14.685 52.1987 15.2984C52.0752 15.5232 52.0221 15.8022 52.3024 15.55C52.5664 15.3131 52.7903 15.0311 52.9928 14.7392C54.0558 13.2128 53.994 11.4155 52.8218 10.0666C52.3512 9.5259 51.8069 9.07945 51.109 8.92841C50.8027 8.86222 50.4578 8.80679 50.2087 9.04199C50.002 9.23733 49.9172 9.66582 50.3195 9.73681Z" fill="#002365"/>
<path d="M44.6254 12.8132C44.8926 12.664 45.1709 12.5362 45.4229 12.358C46.7451 11.4271 47.3073 9.92016 46.8778 8.43679C46.7048 7.84204 46.4445 7.30254 45.9676 6.9589C45.7582 6.80854 45.5181 6.72575 45.2481 6.77125C45.0133 6.81043 44.9275 6.99208 45.0366 7.20795C45.0764 7.28629 45.1309 7.35232 45.1735 7.4269C45.4415 7.886 45.7462 8.32065 45.9637 8.81123C46.2931 9.55206 46.2822 10.3558 45.8818 11.1699C45.5962 11.7473 45.1859 12.2044 44.724 12.6077C44.6484 12.6731 44.574 12.7434 44.5015 12.8123C44.5074 12.8238 44.5134 12.8346 44.5185 12.8455C44.5546 12.8358 44.5936 12.832 44.6254 12.8132Z" fill="#002365"/>
<path d="M46.6108 19.6342C46.6081 19.3148 46.4318 19.075 46.2061 19.0827C45.9194 19.093 45.6504 19.4799 45.6594 19.8694C45.6674 20.1793 45.8315 20.399 46.0561 20.3998C46.353 20.4012 46.6144 20.038 46.6108 19.6342Z" fill="#002365"/>
<path d="M48.6784 21.3691C48.9753 21.3705 49.237 21.065 49.2331 20.7246C49.2304 20.4567 49.0542 20.2546 48.8284 20.2614C48.5408 20.2698 48.2727 20.5953 48.2817 20.9232C48.2884 21.1839 48.454 21.3686 48.6784 21.3691Z" fill="#002365"/>
<path d="M43.2349 18.8464C43.2374 18.4895 43.0522 18.1941 42.8215 18.1866C42.5609 18.1803 42.3216 18.5349 42.3167 18.937C42.313 19.2954 42.5019 19.5853 42.7371 19.5805C42.9957 19.5764 43.2315 19.2271 43.2349 18.8464Z" fill="#002365"/>
<path d="M40.0522 18.7517C40.0522 18.2471 39.7905 17.8378 39.4672 17.8335C39.1438 17.8378 38.8823 18.2471 38.8823 18.7517C38.8823 19.2568 39.1438 19.6658 39.4672 19.6701C39.7905 19.6658 40.0522 19.2568 40.0522 18.7517Z" fill="#002365"/>
<path d="M57.5932 22.6185C56.1104 23.022 54.3385 23.2887 52.9111 22.5413C52.3274 22.1985 51.9213 21.56 51.9293 20.8939C52.0672 19.5727 53.4932 18.7896 54.5753 18.4015C56.2682 17.8646 58.3343 17.8242 60.0142 18.3658C59.7856 18.7975 59.286 19.2551 58.8917 19.5607C57.3225 20.7797 55.6847 21.3653 53.8311 21.8229C53.5974 21.8802 53.5475 21.9609 53.5342 22.085C53.5287 22.3036 53.7892 22.4356 53.9469 22.4645C55.7399 22.808 57.4917 22.3253 59.0809 21.7583C60.4925 21.2543 61.8386 20.7123 63.2948 20.4172C61.3601 21.0511 59.5474 22.0164 57.5932 22.6185ZM51.7112 18.2891C49.7196 19.3033 54.7432 14.9132 56.6862 14.5369C57.9689 14.2874 59.3596 14.4476 60.2191 15.5061C60.6687 16.1282 60.7292 17.1337 60.3519 17.8117C57.5378 16.7712 55.0687 16.3196 51.7112 18.2891ZM63.1821 20.1748C60.4084 20.6998 57.9073 22.2996 54.9329 22.2105C54.7275 22.19 54.5188 22.1782 54.3216 22.1339C56.5086 21.4187 59.0048 20.1439 60.2392 18.4424C61.1236 18.7044 62.4614 19.3964 63.1821 20.1748ZM27.2229 18.2891C23.8651 16.3196 21.3962 16.7712 18.5821 17.8117C18.2049 17.1337 18.2655 16.1282 18.7148 15.5061C19.5744 14.4476 20.9651 14.2874 22.2478 14.5369C24.1908 14.9132 29.2143 19.3033 27.2229 18.2891ZM24.3589 18.4015C25.4407 18.7896 26.8668 19.5727 27.0048 20.8939C27.0128 21.56 26.6066 22.1985 26.023 22.5413C24.5955 23.2887 22.8236 23.022 21.341 22.6185C19.3866 22.0164 17.5739 21.0511 15.6392 20.4172C17.0956 20.7123 18.4415 21.2543 19.8531 21.7583C21.4423 22.3253 23.1943 22.808 24.9871 22.4645C25.1449 22.4356 25.4051 22.3036 25.4 22.085C25.3867 21.9609 25.3368 21.8802 25.1029 21.8229C23.2494 21.3653 21.6117 20.7797 20.0425 19.5607C19.6481 19.2551 19.1486 18.7975 18.9199 18.3658C20.5997 17.8242 22.6658 17.8646 24.3589 18.4015ZM18.695 18.4424C19.9294 20.1439 22.4254 21.4187 24.6125 22.1339C24.4154 22.1782 24.2065 22.19 24.0013 22.2105C21.0269 22.2996 18.5256 20.6998 15.7521 20.1748C16.4726 19.3964 17.8105 18.7044 18.695 18.4424ZM78.8076 22.9216C78.6286 22.703 78.1607 22.2627 77.2197 21.8229C74.6226 20.6079 71.3063 21.2543 69.0546 21.6407C68.4724 20.1233 66.3022 19.5582 63.7655 20.058C62.664 18.8716 61.5573 18.4066 60.565 17.9089C60.9474 17.1819 61.0026 16.1202 60.6331 15.3563C59.8617 14.0198 58.3842 13.755 56.9516 13.9307C54.8683 14.1863 51.2097 16.9255 49.7 17.2969C49.3734 17.3771 49.0322 17.4446 48.6944 17.4539C48.3566 17.4611 48.2162 17.2233 48.1634 16.8636C48.0316 15.9633 48.3658 15.3853 48.3895 15.3515C48.6917 14.9033 49.1337 14.6868 49.5988 14.5104C49.7499 14.4536 49.7962 14.3876 49.7342 14.2133C49.545 13.6784 49.4146 13.1292 49.4359 12.5488C49.4652 12.2618 49.4003 12.2927 49.3155 12.4639C49.1756 12.7499 48.7446 13.2978 48.2371 13.5614C48.1201 13.6225 48.0822 13.7027 48.1945 13.9535C48.4573 14.5379 48.3931 15.0506 48.1733 15.3219C47.7207 15.8807 47.0948 16.0449 46.4022 16.2033C45.521 16.404 44.4795 15.7995 43.7772 15.158C43.7772 15.158 42.8268 13.9701 41.2931 13.351C41.1721 12.894 40.9466 12.4958 40.6487 12.2036C40.5307 10.8359 40.1585 9.19204 39.9268 8.73123C39.7109 8.30223 39.6811 7.81866 39.9035 7.31337C39.9854 7.54669 40.0705 7.77846 40.1491 8.01315C40.4554 8.92452 41.1538 9.4257 41.9203 9.2815C42.313 9.20761 42.6107 8.8106 42.5627 8.42504C42.5183 8.06652 42.1681 7.78702 41.8322 7.84124C41.5185 7.89187 41.4176 8.08892 41.4365 8.61474C40.9722 8.70591 40.3385 8.05728 40.393 7.5005C40.4233 7.19329 40.8702 7.00804 40.7897 6.95912C40.2011 6.52807 40.4365 5.97642 40.7112 5.42854C41.081 4.69028 41.6221 4.3894 42.3084 4.54044C42.5644 4.59688 42.8059 4.7392 42.7825 5.25304C42.6259 5.14066 42.4643 5.06848 42.346 5.04196C42.0247 4.96961 41.7899 5.11705 41.6273 5.44137C41.4501 5.79511 41.5815 6.12575 41.8677 6.35719C42.4241 6.80654 43.5843 6.56125 43.9369 5.9104C44.3828 5.08712 44.0438 4.10032 43.2399 3.71802C41.7823 3.02491 40.2659 4.18567 40.0015 6.26465C39.985 6.39448 39.9516 6.52088 39.8755 6.64336C39.6501 6.17399 39.7576 5.69231 39.8612 5.2332C39.993 4.64957 40.1609 4.07723 40.3332 3.50933C40.7282 2.21036 40.2922 1.17241 39.674 0.186634C39.6014 0.0710025 39.5333 0.0181472 39.4671 0.00976562C39.4009 0.0181472 39.3329 0.0710025 39.2602 0.186634C38.6418 1.17241 38.206 2.21036 38.6008 3.50933C38.7735 4.07723 38.9413 4.64957 39.0729 5.2332C39.1768 5.69231 39.2841 6.17399 39.0586 6.64336C38.9825 6.52088 38.9492 6.39448 38.9327 6.26465C38.6681 4.18567 37.1519 3.02491 35.6943 3.71802C34.8902 4.10032 34.5514 5.08712 34.9973 5.9104C35.3497 6.56125 36.5099 6.80654 37.0664 6.35719C37.3526 6.12575 37.4839 5.79511 37.3067 5.44137C37.1441 5.11705 36.9095 4.96961 36.588 5.04196C36.4697 5.06848 36.3083 5.14066 36.1515 5.25304C36.1283 4.7392 36.3696 4.59688 36.6258 4.54044C37.312 4.3894 37.853 4.69028 38.223 5.42854C38.4975 5.97642 38.7331 6.52807 38.1445 6.95912C38.064 7.00804 38.5109 7.19329 38.5411 7.5005C38.5955 8.05728 37.9618 8.70591 37.4975 8.61474C37.5166 8.08892 37.4156 7.89187 37.102 7.84124C36.7659 7.78702 36.4161 8.06652 36.3714 8.42504C36.3236 8.8106 36.6212 9.20761 37.0137 9.2815C37.7802 9.4257 38.4786 8.92452 38.785 8.01315C38.8639 7.77846 38.9488 7.54669 39.0309 7.31337C39.2531 7.81866 39.2233 8.30223 39.0074 8.73123C38.7757 9.19204 38.4037 10.8359 38.2855 12.2036C37.9875 12.4958 37.762 12.894 37.6411 13.351C36.1074 13.9701 35.157 15.158 35.157 15.158C34.4547 15.7995 33.413 16.404 32.5319 16.2033C31.8392 16.0449 31.2133 15.8807 30.7606 15.3219C30.5408 15.0506 30.4769 14.5379 30.7393 13.9535C30.852 13.7027 30.814 13.6225 30.6967 13.5614C30.1895 13.2978 29.7586 12.7499 29.6185 12.4639C29.5339 12.2927 29.4688 12.2618 29.4981 12.5488C29.5192 13.1292 29.3891 13.6784 29.1998 14.2133C29.138 14.3876 29.1842 14.4536 29.3352 14.5104C29.8005 14.6868 30.2421 14.9033 30.5445 15.3515C30.5682 15.3853 30.9026 15.9633 30.7706 16.8636C30.7178 17.2233 30.5774 17.4611 30.2396 17.4539C29.9016 17.4446 29.5608 17.3771 29.2342 17.2969C27.7244 16.9255 24.0658 14.1863 21.9826 13.9307C20.5498 13.755 19.0723 14.0198 18.3009 15.3563C17.9316 16.1202 17.9868 17.1819 18.3692 17.9089C17.3769 18.4066 16.27 18.8716 15.1685 20.058C12.6318 19.5582 10.4618 20.1233 9.87955 21.6407C7.62788 21.2543 4.31158 20.6079 1.71445 21.8229C0.773264 22.2627 0.305223 22.703 0.126622 22.9216C-0.0521498 23.1395 -0.0599817 23.3798 0.222477 23.2042C0.365835 23.1157 0.511576 22.9149 0.765432 22.7274C2.66603 21.3541 5.73784 21.6625 7.85279 21.9319C8.4836 22.0118 8.91469 22.1021 9.68494 22.2507C9.63233 22.6279 9.78216 22.9943 9.90713 23.0945C10.0345 23.1275 10.0661 22.8357 10.0765 22.7161C10.0845 22.5974 10.1055 22.4857 10.1686 22.3174C12.1099 22.6878 15.5997 23.1434 18.0801 22.3959C18.2466 22.3422 18.385 22.2639 18.3574 22.1055C18.2857 21.8968 17.8064 22.0732 17.558 22.126C15.1409 22.7637 12.6568 22.1378 10.3367 21.6975C10.6917 20.5274 12.8342 19.9213 14.848 20.4819C14.5744 20.911 14.3143 21.5641 14.4917 22.1985C14.8033 22.2434 14.6034 21.3956 15.4067 20.6112C18.2655 21.3021 20.9862 23.3383 23.9724 23.3699C25.3 23.3838 26.3909 23.0174 27.0008 22.2066C27.737 21.228 27.3164 20.0428 26.9115 19.5607C26.0597 18.5447 23.828 17.1344 19.3418 17.9292C19.6074 17.7999 19.9241 17.7478 20.2224 17.6751C22.2652 17.2671 24.7305 17.5235 26.2647 18.4985C26.8223 18.8528 28.5402 19.8548 29.4378 19.6692C29.7974 19.572 30.0814 19.475 30.2965 19.3854C31.7198 18.877 34.7332 17.737 36.4974 17.5001C37.489 17.3661 38.4793 17.3003 39.4671 17.3042C40.4548 17.3003 41.4452 17.3661 42.4367 17.5001C44.2008 17.737 47.2144 18.877 48.6376 19.3854C48.8528 19.475 49.1368 19.572 49.4962 19.6692C50.3939 19.8548 52.1119 18.8528 52.6693 18.4985C54.2035 17.5235 56.669 17.2671 58.7118 17.6751C59.0101 17.7478 59.3266 17.7999 59.5923 17.9292C55.106 17.1344 52.8744 18.5447 52.0225 19.5607C51.6178 20.0428 51.1971 21.228 51.9333 22.2066C52.5431 23.0174 53.634 23.3838 54.9616 23.3699C57.948 23.3383 60.6687 21.3021 63.5275 20.6112C64.3306 21.3956 64.1308 22.2434 64.4423 22.1985C64.6199 21.5641 64.3596 20.911 64.0861 20.4819C66.0996 19.9213 68.2422 20.5274 68.5973 21.6975C66.2772 22.1378 63.7933 22.7637 61.376 22.126C61.1276 22.0732 60.6485 21.8968 60.5766 22.1055C60.549 22.2639 60.6873 22.3422 60.854 22.3959C63.3343 23.1434 66.8239 22.6878 68.7654 22.3174C68.8285 22.4857 68.8495 22.5974 68.8575 22.7161C68.868 22.8357 68.8997 23.1275 69.027 23.0945C69.152 22.9943 69.3017 22.6279 69.2491 22.2507C70.0193 22.1021 70.4506 22.0118 71.0814 21.9319C73.1963 21.6625 76.268 21.3541 78.1687 22.7274C78.4224 22.9149 78.5682 23.1157 78.7115 23.2042C78.9942 23.3798 78.9862 23.1395 78.8076 22.9216Z" fill="#002365"/>
</svg>
