<svg width="176" height="28" viewBox="0 0 176 28" fill="none" xmlns="http://www.w3.org/2000/svg">
<path d="M27.9033 2.84117H2.76617V6.01666H7.69814L7.7805 18.05H12.5189V6.01666H28.051V15.383H21.1327V27.1621H5.17169V24.3209H18.3665V12.5418H25.2848V8.85784H15.285V20.8912H5.03371L4.95135 8.85784H0V0H27.9033V2.84117Z" fill="white"/>
<path d="M48.8072 4.74551H34.5676V7.47836H40.1353V22.8127H43.2148V7.47836H48.8072V4.74551Z" fill="white"/>
<path fill-rule="evenodd" clip-rule="evenodd" d="M50.8383 18.4857C50.7069 18.0133 50.6413 17.5241 50.6413 17.018H60.003C60.1179 16.0396 60.0522 15.0949 59.8059 14.1839C59.5759 13.2561 59.1982 12.438 58.6726 11.7294C58.147 11.0209 57.4819 10.4558 56.6771 10.0341C55.8887 9.59547 54.9936 9.37617 53.9918 9.37617C53.0392 9.37617 52.1851 9.56173 51.4296 9.93286C50.6741 10.304 50.0253 10.8101 49.4834 11.4511C48.9578 12.0753 48.5472 12.8091 48.2516 13.6526C47.9723 14.4792 47.8327 15.3564 47.8327 16.2842C47.8327 17.2964 47.9641 18.2242 48.2269 19.0676C48.5061 19.9111 48.9085 20.6365 49.4341 21.2438C49.9761 21.8511 50.633 22.3234 51.405 22.6608C52.1769 22.9982 53.0638 23.1669 54.0657 23.1669C54.7555 23.1669 55.4124 23.0657 56.0366 22.8633C56.6771 22.6777 57.2519 22.3994 57.7611 22.0282C58.2702 21.6402 58.7055 21.1679 59.0668 20.6112C59.4281 20.0545 59.6827 19.4219 59.8305 18.7134H57.1698C56.9235 19.4388 56.5457 19.987 56.0366 20.3582C55.5438 20.7124 54.8869 20.8895 54.0657 20.8895C53.4744 20.8895 52.9653 20.7883 52.5382 20.5859C52.1112 20.3666 51.7581 20.0798 51.4789 19.7256C51.1997 19.3713 50.9862 18.958 50.8383 18.4857ZM56.8988 13.8044C57.0631 14.2261 57.1616 14.6647 57.1945 15.1202H50.6413C50.6577 14.631 50.748 14.1755 50.9122 13.7538C51.0929 13.332 51.3228 12.9693 51.6021 12.6657C51.8977 12.3452 52.2426 12.1006 52.6368 11.9319C53.0474 11.7463 53.499 11.6535 53.9918 11.6535C54.4681 11.6535 54.8951 11.7548 55.2728 11.9572C55.667 12.1427 55.9955 12.3958 56.2583 12.7163C56.5375 13.02 56.751 13.3827 56.8988 13.8044Z" fill="white"/>
<path d="M70.5143 12.2861C71.0399 12.691 71.3601 13.2983 71.4751 14.108H74.2836C74.2179 13.2983 74.0208 12.5982 73.6923 12.0078C73.3639 11.4174 72.9368 10.9282 72.4113 10.5402C71.9021 10.1522 71.3109 9.86538 70.6375 9.67981C69.9805 9.47738 69.2825 9.37617 68.5434 9.37617C67.4923 9.37617 66.5725 9.56173 65.7842 9.93286C65.0122 10.2871 64.3635 10.7848 63.8379 11.4258C63.3123 12.05 62.9182 12.7922 62.6554 13.6526C62.3926 14.5129 62.2612 15.4323 62.2612 16.4107C62.2612 17.3723 62.3926 18.2663 62.6554 19.0929C62.9346 19.9195 63.337 20.6365 63.8625 21.2438C64.3881 21.8342 65.0287 22.3066 65.7842 22.6608C66.5561 22.9982 67.443 23.1669 68.4449 23.1669C70.0873 23.1669 71.4012 22.7199 72.3866 21.8258C73.3885 20.9148 74.0208 19.6075 74.2836 17.9037H71.4751C71.3437 18.8483 71.007 19.5822 70.465 20.1051C69.9395 20.6281 69.2661 20.8895 68.4449 20.8895C67.8372 20.8895 67.3198 20.763 66.8928 20.51C66.4658 20.2401 66.1126 19.8942 65.8334 19.4725C65.5707 19.0508 65.3736 18.57 65.2422 18.0302C65.1272 17.4904 65.0697 16.9505 65.0697 16.4107C65.0697 15.4154 65.1847 14.6141 65.4146 14.0068C65.6446 13.3827 65.932 12.9019 66.2769 12.5645C66.6218 12.2102 66.9995 11.9741 67.4101 11.856C67.8207 11.721 68.2067 11.6535 68.568 11.6535C69.3564 11.6535 70.0051 11.8644 70.5143 12.2861Z" fill="white"/>
<path d="M80.1141 4.74551H77.3056V22.8127H80.1141V15.0949C80.1141 14.6226 80.188 14.1755 80.3358 13.7538C80.4836 13.332 80.6889 12.9693 80.9517 12.6657C81.2145 12.3452 81.5348 12.1006 81.9125 11.9319C82.2903 11.7463 82.7173 11.6535 83.1936 11.6535C84.0312 11.6535 84.6471 11.8897 85.0413 12.3621C85.4355 12.8175 85.649 13.5598 85.6818 14.5888V22.8127H88.4903V13.8297C88.4903 12.3452 88.088 11.2318 87.2832 10.4895C86.4784 9.74729 85.378 9.37617 83.9819 9.37617C83.1443 9.37617 82.3806 9.5786 81.6908 9.98346C81.0174 10.3715 80.5083 10.8607 80.1634 11.4511H80.1141V4.74551Z" fill="white"/>
<path d="M95.246 20.3835C94.704 20.0461 94.392 19.4556 94.3099 18.6122H91.5013C91.5178 19.3882 91.6656 20.0629 91.9448 20.6365C92.2404 21.1932 92.6346 21.6655 93.1273 22.0535C93.6365 22.4247 94.2277 22.703 94.9011 22.8886C95.5909 23.0741 96.3382 23.1669 97.143 23.1669C97.8 23.1669 98.4651 23.091 99.1385 22.9392C99.8119 22.7873 100.42 22.5427 100.962 22.2054C101.52 21.868 101.972 21.4294 102.317 20.8895C102.661 20.3497 102.834 19.6918 102.834 18.9158C102.834 18.2748 102.711 17.735 102.464 17.2964C102.234 16.8578 101.922 16.4951 101.528 16.2083C101.15 15.9215 100.715 15.6938 100.223 15.5251C99.7298 15.3564 99.2289 15.213 98.7197 15.0949C98.1941 14.9768 97.685 14.8672 97.1923 14.7659C96.6996 14.6647 96.2561 14.5466 95.8619 14.4117C95.4842 14.2599 95.1721 14.0743 94.9258 13.855C94.6958 13.6357 94.5808 13.3489 94.5808 12.9947C94.5808 12.7079 94.663 12.4801 94.8272 12.3114C94.9914 12.1259 95.1885 11.9909 95.4185 11.9066C95.6648 11.8054 95.9194 11.7379 96.1822 11.7041C96.4614 11.6704 96.6996 11.6535 96.8966 11.6535C97.5208 11.6535 98.071 11.7716 98.5473 12.0078C99.04 12.244 99.352 12.7079 99.4834 13.3995H102.415C102.333 12.6741 102.128 12.0584 101.799 11.5523C101.487 11.0294 101.085 10.6076 100.592 10.2871C100.116 9.96659 99.5738 9.73886 98.9661 9.6039C98.3748 9.45208 97.7507 9.37617 97.0937 9.37617C96.5189 9.37617 95.9112 9.43521 95.2707 9.55329C94.6465 9.67138 94.0717 9.88225 93.5461 10.1859C93.037 10.4727 92.61 10.8607 92.2651 11.3499C91.9366 11.8222 91.7723 12.4127 91.7723 13.1212C91.7723 13.7791 91.8873 14.3358 92.1172 14.7912C92.3472 15.2299 92.651 15.5925 93.0288 15.8793C93.423 16.1661 93.8582 16.3938 94.3345 16.5625C94.8272 16.7312 95.3364 16.8746 95.8619 16.9927C96.3711 17.1108 96.872 17.2204 97.3647 17.3217C97.8575 17.4229 98.2927 17.5494 98.6704 17.7012C99.0646 17.8362 99.3849 18.0217 99.6312 18.2579C99.8776 18.4941 100.009 18.7977 100.025 19.1689C100.042 19.54 99.9515 19.8436 99.7544 20.0798C99.5738 20.2991 99.3356 20.4678 99.04 20.5859C98.7444 20.704 98.4241 20.7883 98.0792 20.8389C97.7507 20.8727 97.4551 20.8895 97.1923 20.8895C96.4368 20.8895 95.788 20.7208 95.246 20.3835Z" fill="white"/>
<path fill-rule="evenodd" clip-rule="evenodd" d="M108.095 18.4857C107.964 18.0133 107.898 17.5241 107.898 17.018H117.26C117.375 16.0396 117.309 15.0949 117.063 14.1839C116.833 13.2561 116.455 12.438 115.929 11.7294C115.404 11.0209 114.739 10.4558 113.934 10.0341C113.145 9.59547 112.25 9.37617 111.249 9.37617C110.296 9.37617 109.442 9.56173 108.686 9.93286C107.931 10.304 107.282 10.8101 106.74 11.4511C106.215 12.0753 105.804 12.8091 105.508 13.6526C105.229 14.4792 105.089 15.3564 105.089 16.2842C105.089 17.2964 105.221 18.2242 105.484 19.0676C105.763 19.9111 106.165 20.6365 106.691 21.2438C107.233 21.8511 107.89 22.3234 108.662 22.6608C109.434 22.9982 110.321 23.1669 111.322 23.1669C112.012 23.1669 112.669 23.0657 113.293 22.8633C113.934 22.6777 114.509 22.3994 115.018 22.0282C115.527 21.6402 115.962 21.1679 116.324 20.6112C116.685 20.0545 116.939 19.4219 117.087 18.7134H114.427C114.18 19.4388 113.802 19.987 113.293 20.3582C112.801 20.7124 112.144 20.8895 111.322 20.8895C110.731 20.8895 110.222 20.7883 109.795 20.5859C109.368 20.3666 109.015 20.0798 108.736 19.7256C108.456 19.3713 108.243 18.958 108.095 18.4857ZM114.156 13.8044C114.32 14.2261 114.418 14.6647 114.451 15.1202H107.898C107.914 14.631 108.005 14.1755 108.169 13.7538C108.35 13.332 108.58 12.9693 108.859 12.6657C109.154 12.3452 109.499 12.1006 109.894 11.9319C110.304 11.7463 110.756 11.6535 111.249 11.6535C111.725 11.6535 112.152 11.7548 112.53 11.9572C112.924 12.1427 113.252 12.3958 113.515 12.7163C113.794 13.02 114.008 13.3827 114.156 13.8044Z" fill="white"/>
<path d="M122.795 9.73042H120.134V22.8127H122.942V15.0443C122.942 14.5045 123.016 14.0237 123.164 13.602C123.328 13.1802 123.534 12.826 123.78 12.5392C124.043 12.2524 124.338 12.0331 124.667 11.8813C125.012 11.7294 125.365 11.6535 125.726 11.6535C126.58 11.6535 127.163 11.8897 127.475 12.3621C127.804 12.8175 127.968 13.5007 127.968 14.4117V22.8127H130.777V15.1455C130.777 14.0321 130.99 13.1718 131.417 12.5645C131.844 11.9572 132.534 11.6535 133.487 11.6535C134.029 11.6535 134.456 11.7379 134.768 11.9066C135.08 12.0753 135.31 12.3199 135.457 12.6404C135.622 12.944 135.72 13.3152 135.753 13.7538C135.786 14.1755 135.802 14.6479 135.802 15.1708V22.8127H138.611V13.7791C138.611 12.1934 138.233 11.0631 137.478 10.3883C136.739 9.71355 135.696 9.37617 134.349 9.37617C133.413 9.37617 132.633 9.57016 132.008 9.95816C131.384 10.3462 130.834 10.8775 130.358 11.5523C130.079 10.8101 129.602 10.2618 128.929 9.90755C128.272 9.55329 127.558 9.37617 126.786 9.37617C126.276 9.37617 125.825 9.43521 125.431 9.55329C125.036 9.65451 124.683 9.7979 124.371 9.98346C124.076 10.169 123.805 10.3968 123.558 10.6667C123.312 10.9366 123.082 11.2318 122.868 11.5523H122.795V9.73042Z" fill="white"/>
<path fill-rule="evenodd" clip-rule="evenodd" d="M145.192 4.74551H142.383V22.8127H145.044V21.0161H145.093C145.307 21.4547 145.569 21.8089 145.881 22.0788C146.21 22.3487 146.571 22.568 146.965 22.7367C147.36 22.9054 147.77 23.0151 148.197 23.0657C148.641 23.1332 149.076 23.1669 149.503 23.1669C150.439 23.1669 151.252 22.9813 151.942 22.6102C152.632 22.2222 153.198 21.7161 153.642 21.092C154.102 20.4509 154.438 19.7171 154.652 18.8905C154.882 18.0639 154.997 17.212 154.997 16.3348C154.997 15.3732 154.874 14.4707 154.627 13.6273C154.381 12.7838 154.011 12.05 153.519 11.4258C153.026 10.7848 152.402 10.2871 151.646 9.93286C150.907 9.56173 150.037 9.37617 149.035 9.37617C148.674 9.37617 148.304 9.42677 147.926 9.52799C147.565 9.61234 147.212 9.74729 146.867 9.93286C146.538 10.1016 146.235 10.3124 145.955 10.5655C145.676 10.8185 145.438 11.1053 145.241 11.4258H145.192V4.74551ZM151.967 14.5635C152.114 15.1202 152.188 15.6938 152.188 16.2842C152.188 16.8578 152.123 17.4229 151.991 17.9796C151.876 18.5194 151.671 19.0086 151.375 19.4472C151.096 19.8689 150.735 20.2148 150.291 20.4847C149.848 20.7546 149.306 20.8895 148.665 20.8895C148.09 20.8895 147.581 20.7715 147.138 20.5353C146.711 20.2991 146.341 19.9786 146.029 19.5737C145.717 19.1689 145.479 18.6881 145.315 18.1314C145.167 17.5578 145.093 16.9421 145.093 16.2842C145.093 14.884 145.389 13.7622 145.98 12.9187C146.588 12.0753 147.483 11.6535 148.665 11.6535C149.24 11.6535 149.749 11.7885 150.193 12.0584C150.636 12.3114 151.006 12.6573 151.301 13.0959C151.597 13.5176 151.819 14.0068 151.967 14.5635Z" fill="white"/>
<path d="M160.991 4.74551H158.183V22.8127H160.991V4.74551Z" fill="white"/>
<path d="M166.466 9.73042H163.386L168.215 22.762L167.895 23.7742C167.813 24.061 167.722 24.314 167.624 24.5333C167.525 24.7526 167.402 24.9382 167.254 25.09C167.123 25.2587 166.95 25.3852 166.737 25.4696C166.523 25.5539 166.252 25.5961 165.924 25.5961C165.694 25.5961 165.472 25.5708 165.259 25.5202C165.045 25.4865 164.823 25.4527 164.594 25.419V27.8482C165.234 27.9494 165.883 28 166.54 28C167.279 28 167.887 27.8735 168.363 27.6204C168.839 27.3843 169.233 27.0553 169.545 26.6336C169.874 26.2287 170.145 25.7564 170.358 25.2165C170.588 24.6767 170.818 24.1116 171.048 23.5212L176 9.73042H173.068L169.841 19.4978H169.792L166.466 9.73042Z" fill="white"/>
</svg>
