<svg width="159" height="34" viewBox="0 0 159 34" fill="none" xmlns="http://www.w3.org/2000/svg">
<path fill-rule="evenodd" clip-rule="evenodd" d="M4.81077 9.32409C4.81077 10.8916 4.81077 12.2446 4.72108 12.9623C4.67215 13.4573 4.57431 13.7873 4.23185 13.8946C4.03489 13.9464 3.83196 13.9714 3.62846 13.9688C3.42462 13.9688 3.35938 14.0183 3.35938 14.1008C3.35938 14.1833 3.47354 14.2741 3.69369 14.2741C4.37046 14.2741 5.43046 14.2246 5.82185 14.2246C6.21323 14.2246 7.35477 14.2741 8.47185 14.2741C8.65123 14.2741 8.78985 14.2246 8.78985 14.1008C8.78985 13.9771 8.70831 13.9688 8.52077 13.9688C8.23127 13.9653 7.94241 13.9405 7.65646 13.8946C7.15092 13.8286 7.05308 13.4573 7.00415 12.9788C6.91446 12.2446 6.91446 10.8916 6.91446 9.32409V2.32809L9.04262 2.37759C10.5429 2.37759 10.9995 2.88909 11.0322 3.33459V3.52434C11.0322 3.78009 11.0811 3.86259 11.2197 3.86259C11.3583 3.86259 11.3502 3.76359 11.3746 3.59034C11.3746 3.14484 11.4235 1.94034 11.4235 1.61034C11.4235 1.28034 11.4235 1.25559 11.2849 1.25559C10.7489 1.37062 10.2021 1.42595 9.65415 1.42059H2.968C2.41354 1.42059 1.77754 1.42059 1.28831 1.33809C1.03999 1.29501 0.79678 1.22589 0.562615 1.13184C0.456615 1.13184 0.407692 1.23909 0.358769 1.45359C0.309846 1.66809 0 3.10359 0 3.41709C0 3.73059 0 3.68934 0.154923 3.68934C0.309846 3.68934 0.309846 3.62334 0.342462 3.49134C0.401485 3.27503 0.498123 3.07109 0.627846 2.88909C0.880615 2.51784 1.28831 2.42709 2.25862 2.39409L4.77 2.32809L4.81077 9.32409Z" fill="#AE9364"/>
<path fill-rule="evenodd" clip-rule="evenodd" d="M16.7153 6.79959C16.6841 6.79997 16.6544 6.78643 16.6339 6.76259C16.6135 6.73875 16.6045 6.70702 16.6093 6.67584V6.32109C16.6093 3.73059 16.6093 3.25209 16.6501 2.69934C16.6908 2.14659 16.8132 1.81659 17.2698 1.73409C17.4305 1.69824 17.5944 1.67889 17.759 1.67634C17.9628 1.67634 18.0607 1.67634 18.0607 1.52784C18.0607 1.37934 17.9465 1.37109 17.7101 1.37109C17.0496 1.37109 15.9896 1.42059 15.5819 1.42059C15.1742 1.42059 14.0653 1.37109 13.1358 1.37109C12.8993 1.37109 12.7852 1.37109 12.7852 1.52784C12.7852 1.68459 12.883 1.67634 13.0705 1.67634C13.2921 1.67051 13.5137 1.68988 13.731 1.73409C14.2855 1.84959 14.4241 2.12184 14.4567 2.69934C14.4893 3.27684 14.4567 3.73059 14.4567 6.32109V9.32409C14.4567 10.8916 14.4567 12.2446 14.367 12.9623C14.3018 13.4573 14.2202 13.7873 13.8778 13.8946C13.6808 13.9464 13.4779 13.9714 13.2744 13.9688C13.0705 13.9688 13.0053 14.0183 13.0053 14.1008C13.0053 14.1833 13.1195 14.2741 13.3396 14.2741C14.0164 14.2741 15.0764 14.2246 15.4678 14.2246C15.8592 14.2246 17.0007 14.2741 18.1015 14.2741C18.2972 14.2741 18.4358 14.2246 18.4358 14.1008C18.4358 13.9771 18.3542 13.9688 18.1667 13.9688C17.8772 13.9653 17.5883 13.9405 17.3024 13.8946C16.7968 13.8286 16.699 13.4573 16.6501 12.9788C16.5604 12.2446 16.5604 10.8916 16.5604 9.32409V7.82259C16.5604 7.74009 16.6175 7.72359 16.6664 7.72359H23.1079C23.162 7.72359 23.2058 7.76792 23.2058 7.82259V9.32409C23.2058 10.8916 23.2058 12.2446 23.1242 12.9623C23.059 13.4573 22.9693 13.7873 22.635 13.8946C22.4379 13.9459 22.2351 13.9708 22.0316 13.9688C21.8278 13.9688 21.7625 14.0183 21.7625 14.1008C21.7625 14.1833 21.8767 14.2741 22.1132 14.2741C22.7736 14.2741 23.8336 14.2246 24.225 14.2246C24.6164 14.2246 25.7579 14.2741 26.8505 14.2741C27.0544 14.2741 27.193 14.2246 27.193 14.1008C27.193 13.9771 27.1033 13.9688 26.9239 13.9688C26.6344 13.9653 26.3456 13.9405 26.0596 13.8946C25.5541 13.8286 25.4562 13.4573 25.3992 12.9788C25.3176 12.2446 25.3176 10.8916 25.3176 9.32409V6.32109C25.3176 3.73059 25.3176 3.25209 25.3176 2.69934C25.3176 2.14659 25.4888 1.81659 25.9455 1.73409C26.1062 1.69824 26.2701 1.67889 26.4347 1.67634C26.6385 1.67634 26.7364 1.67634 26.7364 1.52784C26.7364 1.37934 26.6141 1.37109 26.3776 1.37109C25.7253 1.37109 24.6572 1.42059 24.2576 1.42059C23.8581 1.42059 22.741 1.37109 21.8115 1.37109C21.575 1.37109 21.4527 1.37109 21.4527 1.52784C21.4527 1.68459 21.5587 1.67634 21.7462 1.67634C21.9651 1.67006 22.184 1.68944 22.3985 1.73409C22.9612 1.84959 23.0916 2.12184 23.1242 2.69934C23.1568 3.27684 23.1242 3.73059 23.1242 6.32109V6.67584C23.1242 6.76659 23.0753 6.79959 23.0264 6.79959H16.7153Z" fill="#AE9364"/>
<path fill-rule="evenodd" clip-rule="evenodd" d="M31.2618 9.32451C31.2618 10.892 31.2618 12.245 31.1803 12.9628C31.1069 13.4578 31.0254 13.7878 30.691 13.895C30.4911 13.9457 30.2856 13.9707 30.0795 13.9693C29.8757 13.9693 29.8104 14.0188 29.8104 14.1013C29.8104 14.1838 29.9327 14.2745 30.1529 14.2745C30.8215 14.2745 31.8897 14.225 32.2729 14.225C33.2677 14.225 34.4011 14.324 36.9451 14.324C37.5892 14.324 37.7604 14.324 37.8583 13.8785C37.9746 13.2547 38.0482 12.6234 38.0784 11.9893C38.0784 11.816 38.0784 11.6758 37.9398 11.6758C37.8012 11.6758 37.793 11.75 37.7523 11.9398C37.6381 12.6328 37.4343 12.9958 36.994 13.202C36.4831 13.3656 35.9469 13.4327 35.4121 13.4C33.6917 13.4 33.4226 13.1443 33.39 11.9728C33.39 11.4778 33.39 9.90201 33.39 9.32451V7.97976C33.39 7.87251 33.39 7.80651 33.4878 7.80651C33.8955 7.80651 35.567 7.80651 35.885 7.85601C36.5047 7.92201 36.7004 8.17776 36.8309 8.52426C36.8658 8.72611 36.8876 8.93004 36.8961 9.13476C36.8961 9.22551 36.8961 9.29151 37.051 9.29151C37.206 9.29151 37.1978 9.10176 37.1978 8.96976C37.1978 8.83776 37.1978 8.14476 37.2712 7.82301C37.3201 6.95676 37.4017 6.67626 37.4017 6.57726C37.4017 6.47826 37.3527 6.43701 37.2875 6.43701C37.2223 6.43701 37.1326 6.52776 37.0103 6.65976C36.888 6.79176 36.6107 6.88251 36.1949 6.91551C35.779 6.94851 33.8711 6.91551 33.496 6.91551C33.3981 6.91551 33.3818 6.84126 33.3818 6.72576V2.48526C33.3818 2.36976 33.3818 2.32026 33.496 2.32026C33.8384 2.32026 35.6078 2.32026 35.8932 2.38626C36.7086 2.48526 36.9043 2.69151 37.0266 2.99676C37.0929 3.1961 37.1259 3.4052 37.1244 3.61551C37.1244 3.77226 37.1244 3.85476 37.2794 3.85476C37.4343 3.85476 37.4261 3.75576 37.4424 3.66501C37.4587 3.57426 37.5158 2.70801 37.5321 2.54301C37.581 1.71801 37.6626 1.55301 37.6626 1.42926C37.6626 1.30551 37.6626 1.28076 37.5647 1.28076C37.4732 1.29399 37.3831 1.31609 37.2957 1.34676C37.0556 1.39217 36.8134 1.42521 36.57 1.44576C36.2438 1.44576 32.8926 1.44576 32.3544 1.44576C31.8163 1.44576 30.8134 1.39626 29.9083 1.39626C29.6555 1.39626 29.5332 1.39626 29.5332 1.55301C29.5332 1.70976 29.6392 1.70151 29.8186 1.70151C30.0402 1.69568 30.2617 1.71505 30.479 1.75926C31.0335 1.87476 31.1721 2.14701 31.2047 2.72451C31.2374 3.30201 31.2047 3.75576 31.2047 6.34626L31.2618 9.32451Z" fill="#AE9364"/>
<path fill-rule="evenodd" clip-rule="evenodd" d="M49.4694 9.32443C49.4694 10.8919 49.4694 12.2449 49.3797 12.9627C49.3145 13.4577 49.233 13.7877 48.8905 13.8949C48.6936 13.9468 48.4906 13.9718 48.2871 13.9692C48.0833 13.9692 48.0181 14.0187 48.0181 14.1012C48.0181 14.1837 48.1322 14.2744 48.3524 14.2744C49.0291 14.2744 50.0891 14.2249 50.4805 14.2249C50.8719 14.2249 51.9808 14.2744 53.0979 14.2744C53.2773 14.2744 53.4159 14.2249 53.4159 14.1012C53.4159 13.9774 53.3344 13.9692 53.1468 13.9692C52.8573 13.9656 52.5685 13.9408 52.2825 13.8949C51.777 13.8289 51.6791 13.4577 51.6302 12.9792C51.5405 12.2449 51.5405 10.8919 51.5405 9.32443V2.48518C51.5405 2.29543 51.5894 2.18818 51.6791 2.15518C51.8925 2.10306 52.112 2.08085 52.3314 2.08918C52.9579 2.08504 53.562 2.32423 54.0193 2.75743C54.7027 3.42301 55.0658 4.35663 55.014 5.31493C55.0964 6.70351 54.1156 7.92523 52.7554 8.12818C52.4048 8.12818 52.2825 8.18593 52.2825 8.31793C52.2825 8.44993 52.4048 8.45818 52.4864 8.47468C52.6058 8.48309 52.7257 8.48309 52.8451 8.47468C53.9463 8.5232 55.0178 8.10645 55.8034 7.32417C56.5889 6.54189 57.0177 5.46445 56.9873 4.34968C56.9802 3.59293 56.6887 2.86729 56.1719 2.32018C55.9028 2.06443 55.1445 1.34668 53.0327 1.34668C52.2173 1.34668 51.2796 1.39618 50.5865 1.39618C50.1136 1.39618 49.0536 1.34668 48.1404 1.34668C47.8876 1.34668 47.7734 1.34668 47.7734 1.50343C47.7734 1.66018 47.8713 1.65193 48.0588 1.65193C48.2804 1.6461 48.502 1.66547 48.7193 1.70968C49.2737 1.82518 49.4124 2.09743 49.445 2.67493C49.4776 3.25243 49.445 3.70618 49.445 6.29668L49.4694 9.32443Z" fill="#AE9364"/>
<path fill-rule="evenodd" clip-rule="evenodd" d="M60.6808 9.32451C60.6808 10.892 60.6808 12.245 60.5911 12.9628C60.5258 13.4578 60.4443 13.7878 60.1018 13.895C59.9049 13.9469 59.702 13.9718 59.4985 13.9693C59.2946 13.9693 59.2294 14.0188 59.2294 14.1013C59.2294 14.1838 59.3435 14.2745 59.5637 14.2745C60.2405 14.2745 61.3005 14.225 61.6918 14.225C62.6866 14.225 63.8118 14.324 66.364 14.324C67 14.324 67.1794 14.324 67.2691 13.8785C67.3895 13.2553 67.463 12.6237 67.4892 11.9893C67.4892 11.816 67.4892 11.6758 67.3588 11.6758C67.2283 11.6758 67.2038 11.75 67.1712 11.9398C67.0571 12.6328 66.8532 12.9958 66.4129 13.202C65.8992 13.3649 65.3604 13.432 64.8229 13.4C63.1025 13.4 62.8334 13.1443 62.8008 11.9728C62.8008 11.4778 62.8008 9.90201 62.8008 9.32451V7.97976C62.8008 7.87251 62.8008 7.80651 62.9068 7.80651C63.3063 7.80651 64.9778 7.80651 65.2958 7.85601C65.9237 7.92201 66.1602 8.17776 66.2417 8.52426C66.2766 8.72611 66.2983 8.93004 66.3069 9.13476C66.3015 9.17777 66.3161 9.22089 66.3464 9.25154C66.3767 9.2822 66.4193 9.29696 66.4618 9.29151C66.6168 9.29151 66.6168 9.10176 66.6168 8.96976C66.6168 8.83776 66.6168 8.14476 66.682 7.82301C66.7054 7.40548 66.7516 6.98959 66.8206 6.57726C66.8206 6.47826 66.7635 6.43701 66.6983 6.43701C66.6331 6.43701 66.5434 6.52776 66.4292 6.65976C66.1992 6.84623 65.9078 6.93761 65.6138 6.91551C65.2225 6.91551 63.2818 6.91551 62.9149 6.91551C62.8089 6.91551 62.7926 6.84126 62.7926 6.72576V2.48526C62.7926 2.36976 62.7926 2.32026 62.9149 2.32026C63.2492 2.32026 65.0186 2.32026 65.304 2.38626C66.1194 2.48526 66.3232 2.69151 66.4374 2.99676C66.5037 3.1961 66.5367 3.4052 66.5352 3.61551C66.5352 3.77226 66.5352 3.85476 66.6902 3.85476C66.8451 3.85476 66.8451 3.75576 66.8614 3.66501C66.8777 3.57426 66.9266 2.70801 66.9429 2.54301C66.968 2.16938 67.0143 1.79752 67.0815 1.42926C67.0815 1.34676 67.0815 1.28076 66.9755 1.28076C66.8842 1.295 66.7941 1.31708 66.7065 1.34676C66.4665 1.39277 66.2242 1.42582 65.9808 1.44576C65.6628 1.44576 62.3034 1.44576 61.7652 1.44576C61.2271 1.44576 60.2323 1.39626 59.3191 1.39626C59.0663 1.39626 58.9521 1.39626 58.9521 1.55301C58.9521 1.70976 59.05 1.70151 59.2375 1.70151C59.4564 1.69523 59.6753 1.71461 59.8898 1.75926C60.4525 1.87476 60.5829 2.14701 60.6155 2.72451C60.6481 3.30201 60.6563 3.75576 60.6563 6.34626L60.6808 9.32451Z" fill="#AE9364"/>
<path fill-rule="evenodd" clip-rule="evenodd" d="M72.7649 4.78677H72.8139C73.1156 5.10852 74.9909 7.26177 76.8337 9.08502C78.6765 10.9083 80.7394 13.078 81.8076 14.101C81.9951 14.2908 82.1908 14.4805 82.3783 14.4805C82.5659 14.4805 82.5985 14.3238 82.5985 13.9525L82.786 3.17802C82.786 2.22927 82.9328 1.86627 83.4057 1.73427C83.5702 1.68838 83.7408 1.66889 83.9113 1.67652C84.1151 1.67652 84.2211 1.62702 84.2211 1.52802C84.2211 1.42902 84.0499 1.37127 83.8297 1.37127C83.0143 1.37127 82.362 1.42077 82.1989 1.42077C81.8483 1.42077 81.0411 1.37127 80.1605 1.37127C79.9077 1.37127 79.7202 1.37127 79.7202 1.52802C79.7202 1.68477 79.7854 1.67652 79.9893 1.67652C80.2921 1.66008 80.5955 1.69635 80.8862 1.78377C81.2939 1.94877 81.4406 2.27877 81.4569 3.31827L81.6282 10.9825H81.5466C81.2531 10.7103 78.9782 8.25177 77.8366 7.08852C75.3905 4.61352 72.8057 1.83327 72.6019 1.61052C72.398 1.38777 72.1616 1.08252 71.9822 1.08252C71.8028 1.08252 71.762 1.32177 71.762 1.66002L71.6071 11.7663C71.6071 13.2513 71.5256 13.7463 71.0852 13.8783C70.8379 13.9441 70.5827 13.9746 70.3269 13.969C70.1557 13.969 70.0579 13.969 70.0579 14.101C70.0579 14.233 70.2046 14.2743 70.4248 14.2743C71.3054 14.2743 72.0556 14.2248 72.2512 14.2248C72.5692 14.2248 73.246 14.2743 74.3386 14.2743C74.5751 14.2743 74.73 14.2743 74.73 14.101C74.73 13.9278 74.624 13.969 74.4446 13.969C74.1462 13.9795 73.8483 13.9377 73.564 13.8453C73.2297 13.7298 73.0096 13.2843 72.9769 11.956L72.7649 4.78677Z" fill="#AE9364"/>
<path fill-rule="evenodd" clip-rule="evenodd" d="M88.4693 9.32433C88.4693 10.9743 88.4693 12.3273 88.3796 13.0451C88.3306 13.5401 88.2328 13.8701 87.8903 13.8701C87.6934 13.9219 87.4904 13.9469 87.2869 13.9443C87.0831 13.9443 87.0179 13.9938 87.0179 14.0763C87.0179 14.1588 87.132 14.2496 87.3522 14.2496C88.0289 14.2496 89.0889 14.2001 89.4803 14.2001C89.8717 14.2001 90.997 14.2496 92.114 14.2496C92.2934 14.2496 92.432 14.2001 92.432 14.0763C92.432 13.9526 92.3505 13.9443 92.163 13.9443C91.8735 13.9408 91.5846 13.916 91.2986 13.8701C90.7931 13.8041 90.679 13.4988 90.63 13.0451C90.5566 12.3108 90.5566 10.9661 90.5566 9.30783V6.30483C90.5566 3.71433 90.5566 3.23583 90.5566 2.68308C90.5566 2.13033 90.7279 1.80033 91.1845 1.71783C91.3504 1.68005 91.5199 1.66069 91.69 1.66008C91.8613 1.66008 91.9591 1.66008 91.9591 1.49508C91.9591 1.33008 91.8286 1.35483 91.6085 1.35483C90.9643 1.35483 89.9777 1.40433 89.5456 1.40433C89.1134 1.40433 87.9963 1.35483 87.3522 1.35483C87.0831 1.35483 86.9526 1.35483 86.9526 1.49508C86.9526 1.63533 87.0505 1.66008 87.2217 1.66008C87.4254 1.65479 87.6287 1.67981 87.8251 1.73433C88.2002 1.81683 88.3714 2.10558 88.404 2.68308C88.4366 3.26058 88.404 3.71433 88.404 6.30483L88.4693 9.32433Z" fill="#AE9364"/>
<path fill-rule="evenodd" clip-rule="evenodd" d="M97.3568 4.78677H97.4139C97.7156 5.10852 99.5828 7.26177 101.426 9.08502C103.268 10.9083 105.339 13.078 106.399 14.101C106.587 14.2908 106.791 14.4805 106.978 14.4805C107.166 14.4805 107.19 14.3238 107.19 13.9525L107.378 3.17802C107.378 2.22927 107.533 1.86627 108.006 1.73427C108.17 1.68838 108.341 1.66889 108.511 1.67652C108.715 1.67652 108.813 1.62702 108.813 1.52802C108.813 1.42902 108.642 1.37127 108.422 1.37127C107.606 1.37127 106.962 1.42077 106.791 1.42077C106.432 1.42077 105.625 1.37127 104.744 1.37127C104.491 1.37127 104.312 1.37127 104.312 1.52802C104.312 1.68477 104.377 1.67652 104.581 1.67652C104.881 1.66004 105.182 1.69633 105.47 1.78377C105.878 1.94877 106.033 2.27877 106.049 3.31827L106.212 10.9825H106.13C105.845 10.7103 103.57 8.25177 102.42 7.08852C99.9742 4.61352 97.3894 1.83327 97.1937 1.61052C96.9981 1.38777 96.7534 1.08252 96.5659 1.08252C96.3784 1.08252 96.3458 1.32177 96.3458 1.66002L96.199 11.7663C96.199 13.2513 96.1093 13.7463 95.669 13.8783C95.4217 13.9445 95.1664 13.9751 94.9107 13.969C94.7476 13.969 94.6416 13.969 94.6416 14.101C94.6416 14.233 94.7965 14.2743 95.0167 14.2743C95.8891 14.2743 96.6474 14.2248 96.835 14.2248C97.1611 14.2248 97.8298 14.2743 98.9305 14.2743C99.167 14.2743 99.3138 14.2743 99.3138 14.101C99.3138 13.9278 99.2159 13.969 99.0284 13.969C98.7326 13.9796 98.4374 13.9377 98.1559 13.8453C97.8134 13.7298 97.5933 13.2843 97.5607 11.956L97.3568 4.78677Z" fill="#AE9364"/>
<path fill-rule="evenodd" clip-rule="evenodd" d="M114.268 14.5136C115.21 14.5463 116.142 14.3028 116.951 13.8124C117.973 13.182 118.593 12.0538 118.581 10.8424C118.581 9.19236 117.839 8.07861 115.809 6.49461L115.336 6.13161C113.942 5.05911 113.55 4.48161 113.55 3.65661C113.558 3.14396 113.781 2.65889 114.164 2.32328C114.547 1.98768 115.054 1.83345 115.556 1.89936C116.268 1.84405 116.961 2.1539 117.399 2.72436C117.652 3.04631 117.805 3.43664 117.839 3.84636C117.839 4.05261 117.888 4.15161 118.002 4.15161C118.117 4.15161 118.19 4.01961 118.19 3.64011C118.19 2.31186 118.255 1.81686 118.255 1.59411C118.255 1.37136 118.174 1.42086 118.019 1.38786C117.288 1.1881 116.533 1.09094 115.776 1.09911C113.436 1.09911 111.879 2.45211 111.879 4.32486C111.879 5.71086 112.523 6.89886 114.374 8.36736L115.189 8.98611C116.584 10.0751 116.82 10.8754 116.82 11.7169C116.787 12.2827 116.528 12.8104 116.101 13.178C115.675 13.5456 115.119 13.7211 114.562 13.6639C113.442 13.7603 112.414 13.0355 112.115 11.9396C112.033 11.6549 111.984 11.3614 111.969 11.0651C111.969 10.9331 111.969 10.7764 111.797 10.7764C111.626 10.7764 111.61 10.9661 111.594 11.2219C111.577 11.4776 111.512 12.5171 111.512 13.4576C111.512 13.8289 111.561 13.9196 111.83 14.0351C112.6 14.3684 113.431 14.5316 114.268 14.5136Z" fill="#AE9364"/>
<path fill-rule="evenodd" clip-rule="evenodd" d="M122.658 8.81259C122.658 11.2876 123.303 12.5498 124.167 13.3336C125.224 14.1875 126.56 14.6085 127.909 14.5133C129.19 14.5689 130.444 14.1294 131.416 13.2841C132.834 12.0548 133.046 10.0418 133.046 8.14434V6.32109C133.046 3.73059 133.046 3.25209 133.046 2.69934C133.046 2.14659 133.209 1.81659 133.666 1.73409C133.826 1.69597 133.991 1.67659 134.155 1.67634C134.359 1.67634 134.465 1.67634 134.465 1.52784C134.465 1.37934 134.343 1.37109 134.106 1.37109C133.446 1.37109 132.386 1.42059 132.182 1.42059C132.182 1.42059 131.106 1.37109 130.241 1.37109C130.005 1.37109 129.891 1.37109 129.891 1.52784C129.891 1.68459 129.989 1.67634 130.176 1.67634C130.382 1.67275 130.587 1.69212 130.788 1.73409C131.342 1.84959 131.473 2.12184 131.513 2.69934C131.554 3.27684 131.513 3.73059 131.513 6.32109V8.45784C131.513 10.2151 131.456 11.7578 130.535 12.6901C129.905 13.2899 129.068 13.6183 128.203 13.6058C127.44 13.6423 126.691 13.3926 126.099 12.9046C125.284 12.2281 124.778 11.1803 124.778 8.71359V6.32109C124.778 3.73059 124.778 3.25209 124.778 2.69934C124.778 2.14659 124.95 1.81659 125.406 1.73409C125.566 1.69553 125.731 1.67614 125.895 1.67634C126.067 1.67634 126.165 1.67634 126.165 1.52784C126.165 1.37934 126.05 1.37109 125.798 1.37109C125.186 1.37109 124.167 1.42059 123.718 1.42059C123.27 1.42059 122.153 1.37109 121.272 1.37109C121.019 1.37109 120.905 1.37109 120.905 1.52784C120.905 1.68459 121.003 1.67634 121.191 1.67634C121.41 1.67006 121.628 1.68944 121.843 1.73409C122.406 1.84959 122.536 2.12184 122.569 2.69934C122.601 3.27684 122.569 3.73059 122.569 6.32109L122.658 8.81259Z" fill="#AE9364"/>
<path fill-rule="evenodd" clip-rule="evenodd" d="M140.026 6.32109C140.026 3.73059 140.026 3.25209 140.026 2.69934C140.026 2.14659 140.197 1.81659 140.654 1.73409C140.872 1.69512 141.093 1.67579 141.314 1.67634C141.51 1.67634 141.616 1.67634 141.616 1.52784C141.616 1.37934 141.494 1.37109 141.257 1.37109C140.605 1.37109 139.374 1.42059 138.966 1.42059C138.558 1.42059 137.449 1.37109 136.659 1.37109C136.406 1.37109 136.283 1.37109 136.283 1.52784C136.283 1.68459 136.389 1.67634 136.569 1.67634C136.758 1.67067 136.947 1.69008 137.131 1.73409C137.686 1.84959 137.816 2.12184 137.857 2.69934C137.898 3.27684 137.857 3.73059 137.857 6.32109V9.32409C137.857 10.8916 137.857 12.2446 137.767 12.9623C137.702 13.4573 137.621 13.7873 137.278 13.8946C137.081 13.9464 136.878 13.9714 136.675 13.9688C136.471 13.9688 136.406 14.0183 136.406 14.1008C136.406 14.1833 136.52 14.2741 136.74 14.2741C137.417 14.2741 138.477 14.2246 138.868 14.2246C140.23 14.2246 141.314 14.3236 143.761 14.3236C144.633 14.3236 144.723 14.2411 144.821 13.8616C144.954 13.2146 145.039 12.5582 145.073 11.8981C145.073 11.7001 145.073 11.6093 144.943 11.6093C144.812 11.6093 144.772 11.7166 144.755 11.8651C144.703 12.2401 144.55 12.5936 144.315 12.8881C143.891 13.3501 143.239 13.3666 142.342 13.3666C141.029 13.3666 140.589 13.2511 140.303 12.9953C140.018 12.7396 139.945 11.5103 139.945 9.32409L140.026 6.32109Z" fill="#AE9364"/>
<path fill-rule="evenodd" clip-rule="evenodd" d="M153.398 9.81905C153.475 9.81165 153.547 9.85987 153.57 9.93455L154.915 13.5563C154.953 13.6276 154.959 13.7122 154.931 13.7881C154.902 13.864 154.843 13.9239 154.768 13.9523C154.597 13.9523 154.532 14.0018 154.532 14.1008C154.532 14.1998 154.736 14.2245 155.037 14.241C156.383 14.241 157.614 14.241 158.225 14.241C158.837 14.241 159 14.241 159 14.0678C159 13.8945 158.918 13.9358 158.78 13.9358C158.541 13.9374 158.304 13.9125 158.07 13.8615C157.72 13.779 157.255 13.5398 156.586 12.0053C155.51 9.4148 152.811 2.4518 152.404 1.5113C152.232 1.1153 152.134 0.966797 151.98 0.966797C151.825 0.966797 151.71 1.1483 151.507 1.6433L147.275 12.3683C146.94 13.1933 146.622 13.8038 145.84 13.911C145.666 13.92 145.492 13.92 145.318 13.911C145.187 13.911 145.114 13.911 145.114 14.043C145.114 14.175 145.22 14.2163 145.44 14.2163C146.313 14.2163 147.242 14.1668 147.43 14.1668C147.952 14.1668 148.677 14.2163 149.215 14.2163C149.403 14.2163 149.501 14.2163 149.501 14.043C149.501 13.8698 149.452 13.911 149.248 13.911H148.995C148.473 13.911 148.327 13.6883 148.327 13.383C148.354 13.0221 148.439 12.6682 148.579 12.3353L149.484 9.8603C149.484 9.75305 149.558 9.72005 149.639 9.72005L153.398 9.81905ZM149.974 8.99405C149.908 8.99405 149.892 8.9363 149.908 8.8703L151.458 4.67105C151.458 4.60505 151.507 4.52255 151.564 4.52255C151.621 4.52255 151.629 4.60505 151.645 4.67105L153.162 8.8868C153.162 8.9363 153.162 8.99405 153.08 8.99405H149.974Z" fill="#AE9364"/>
<path fill-rule="evenodd" clip-rule="evenodd" d="M40.0924 29.8172C40.0924 29.8172 40.0434 29.8172 40.0434 29.7594V29.5779C40.0434 28.2827 40.0434 28.0434 40.0434 27.7712C40.0434 27.4989 40.125 27.3257 40.3533 27.2844H40.5979C40.6958 27.2844 40.7528 27.2844 40.7528 27.2019C40.7528 27.1194 40.6876 27.1277 40.5734 27.1277H39.5134C39.2851 27.1277 38.7551 27.1277 38.2985 27.1277C38.1762 27.1277 38.1191 27.1277 38.1191 27.2019C38.1191 27.2762 38.1681 27.2844 38.2659 27.2844C38.3744 27.2743 38.4836 27.2743 38.5921 27.2844C38.8693 27.3422 38.9345 27.4824 38.9508 27.7712C38.9671 28.0599 38.9508 28.2827 38.9508 29.5779V31.0794C38.9508 31.9044 38.9508 32.5397 38.9508 32.8944C38.9508 33.2492 38.8774 33.3317 38.7062 33.3647C38.606 33.376 38.5048 33.376 38.4045 33.3647C38.3067 33.3647 38.2659 33.3647 38.2659 33.4389C38.2659 33.5132 38.3311 33.5214 38.4371 33.5214H39.4971C39.7336 33.5214 40.3125 33.5214 40.8181 33.5214C40.9159 33.5214 40.9893 33.5214 40.9893 33.4389C40.9893 33.3564 40.9404 33.3647 40.8507 33.3647C40.7067 33.3732 40.5625 33.3732 40.4185 33.3647C40.1658 33.3647 40.1168 33.1419 40.0924 32.9027C40.0924 32.5397 40.0924 31.8632 40.0924 31.0794V30.3287C40.0892 30.3148 40.0933 30.3003 40.1033 30.2902C40.1132 30.2801 40.1276 30.276 40.1413 30.2792H43.3621C43.3891 30.2792 43.411 30.3013 43.411 30.3287V31.0794C43.411 31.9044 43.411 32.5397 43.411 32.8944C43.411 33.2492 43.3376 33.3317 43.1664 33.3647C43.0661 33.3756 42.9649 33.3756 42.8647 33.3647C42.7587 33.3647 42.7261 33.3647 42.7261 33.4389C42.7261 33.5132 42.7913 33.5214 42.9054 33.5214H43.9573C44.1938 33.5214 44.7237 33.5214 45.2782 33.5214C45.3761 33.5214 45.4413 33.5214 45.4413 33.4389C45.4413 33.3564 45.4413 33.3647 45.3108 33.3647C45.1669 33.3732 45.0226 33.3732 44.8787 33.3647C44.6259 33.3647 44.577 33.1419 44.5525 32.9027C44.5118 32.5397 44.5118 31.8632 44.5118 31.0794V29.5779C44.5118 28.2827 44.5118 28.0434 44.5118 27.7712C44.5118 27.4989 44.5933 27.3257 44.8216 27.2844H45.0662C45.1641 27.2844 45.213 27.2844 45.213 27.2019C45.213 27.1194 45.1559 27.1277 45.0418 27.1277H43.9736C43.7453 27.1277 43.2153 27.1277 42.7587 27.1277C42.6445 27.1277 42.5874 27.1277 42.5874 27.2019C42.5874 27.2762 42.6364 27.2844 42.7261 27.2844C42.8373 27.2743 42.9492 27.2743 43.0604 27.2844C43.3376 27.3422 43.4028 27.4824 43.4191 27.7712C43.4354 28.0599 43.4191 28.2827 43.4191 29.5779V29.7594C43.4191 29.8007 43.4191 29.8172 43.3702 29.8172H40.0924Z" fill="#AE9364"/>
<path fill-rule="evenodd" clip-rule="evenodd" d="M58.9197 33.6705C59.853 33.7176 60.7629 33.3654 61.4268 32.7C62.0907 32.0345 62.4473 31.1173 62.4095 30.1725C62.4095 28.2255 61.1049 26.988 59.0012 26.988C58.0987 26.9262 57.2114 27.2464 56.5513 27.8721C55.8911 28.4978 55.5174 29.3728 55.5195 30.288C55.481 31.2067 55.8288 32.0989 56.4769 32.7435C57.1249 33.3882 58.0125 33.725 58.9197 33.6705ZM59.2784 33.2498C57.6476 33.2498 56.6855 31.839 56.6855 30.0653C56.6855 27.9368 57.7863 27.3923 58.7566 27.3923C60.1427 27.3923 61.2027 28.5803 61.2027 30.4943C61.2272 32.961 59.8655 33.2498 59.2784 33.2498Z" fill="#AE9364"/>
<path fill-rule="evenodd" clip-rule="evenodd" d="M74.6075 31.0794C74.6075 31.9044 74.6075 32.5397 74.6075 32.8944C74.6075 33.2492 74.5341 33.3317 74.3629 33.3647C74.2626 33.3756 74.1615 33.3756 74.0612 33.3647C73.9552 33.3647 73.9226 33.3647 73.9226 33.4389C73.9226 33.5132 73.9797 33.5214 74.0938 33.5214H75.1538C75.3903 33.5214 75.9203 33.5214 76.4829 33.5214C76.5726 33.5214 76.6378 33.5214 76.6378 33.4389C76.6378 33.3564 76.6378 33.3647 76.5074 33.3647C76.3635 33.3735 76.2191 33.3735 76.0752 33.3647C75.8225 33.3647 75.7735 33.1419 75.7491 32.9027C75.7018 32.2962 75.6854 31.6876 75.7001 31.0794V27.5814H76.7683C77.5185 27.5814 77.7468 27.8372 77.7631 28.0599V28.1507C77.7631 28.2827 77.7631 28.3239 77.8528 28.3239C77.9425 28.3239 77.9261 28.2744 77.9343 28.1837C77.9424 28.0929 77.9343 27.3587 77.9343 27.1937C77.9343 27.0287 77.9343 27.0204 77.8609 27.0204C77.5929 27.0779 77.3195 27.1056 77.0455 27.1029H73.7025C73.4252 27.1029 73.1072 27.1029 72.8871 27.1029C72.7645 27.0822 72.6443 27.0491 72.5283 27.0039C72.4712 27.0039 72.4468 27.0534 72.4223 27.1607C72.3978 27.2679 72.2429 27.9857 72.2429 28.1424C72.2429 28.2992 72.2429 28.2827 72.3245 28.2827C72.406 28.2827 72.3978 28.2827 72.4141 28.1754C72.4456 28.0685 72.4953 27.968 72.5609 27.8784C72.6832 27.6887 72.8871 27.6474 73.3763 27.6309H74.632L74.6075 31.0794Z" fill="#AE9364"/>
<path fill-rule="evenodd" clip-rule="evenodd" d="M88.7791 31.08C88.794 31.6854 88.7777 32.2912 88.7302 32.895C88.7302 33.1425 88.6568 33.3322 88.4856 33.3652C88.3853 33.3766 88.2841 33.3766 88.1839 33.3652C88.086 33.3652 88.0534 33.3652 88.0534 33.4395C88.0534 33.5137 88.1105 33.522 88.2165 33.522H89.2846C89.782 33.522 90.3446 33.5715 91.6166 33.5715C91.9428 33.5715 92.0162 33.5715 92.0733 33.3487C92.1328 33.0355 92.171 32.7185 92.1874 32.4C92.1874 32.3175 92.1874 32.2515 92.114 32.2515C92.0406 32.2515 92.0406 32.2515 92.0243 32.3752C91.9673 32.73 91.8613 32.9032 91.6411 33.0105C91.3779 33.0949 91.1012 33.1285 90.8257 33.1095C89.9696 33.1095 89.831 32.9857 89.8146 32.3917C89.8146 32.1442 89.8146 31.3605 89.8146 31.0717V30.3952C89.8146 30.3457 89.8146 30.3127 89.8636 30.3127C90.0674 30.3127 90.8991 30.3127 91.0622 30.3127C91.372 30.3127 91.4943 30.4777 91.5351 30.6427C91.5419 30.7471 91.5419 30.8518 91.5351 30.9562C91.5324 30.9766 91.5392 30.9972 91.5536 31.0117C91.568 31.0263 91.5883 31.0332 91.6085 31.0305C91.69 31.0305 91.69 30.9397 91.69 30.8655C91.69 30.7912 91.69 30.4695 91.69 30.2962C91.69 29.859 91.7553 29.727 91.7553 29.6692C91.7553 29.6115 91.7553 29.6032 91.6982 29.6032C91.6411 29.6032 91.6248 29.6445 91.5596 29.7187C91.4943 29.793 91.3639 29.826 91.16 29.8425C90.9562 29.859 89.994 29.8425 89.8065 29.8425C89.7576 29.8425 89.7494 29.8425 89.7494 29.7517V27.5902C89.7494 27.5325 89.7494 27.5077 89.8065 27.5077C89.9777 27.5077 90.8583 27.5077 91.0051 27.5077C91.4291 27.5572 91.5106 27.6645 91.5677 27.813C91.6057 27.9101 91.6251 28.0137 91.6248 28.1182C91.6248 28.2007 91.6248 28.242 91.6982 28.242C91.7716 28.242 91.7716 28.1925 91.7797 28.1512C91.7879 28.11 91.7797 27.6727 91.7797 27.582C91.7797 27.1942 91.8531 27.087 91.8531 27.0292C91.8531 26.9715 91.8531 26.955 91.796 26.955C91.7526 26.9512 91.709 26.9512 91.6656 26.955L91.2986 27.0045H89.1949C88.9585 27.0045 88.4285 27.0045 87.98 27.0045C87.8496 27.0045 87.7925 27.0045 87.7925 27.0787C87.7925 27.153 87.8414 27.1612 87.9393 27.1612C88.0477 27.1511 88.1569 27.1511 88.2654 27.1612C88.5426 27.219 88.6079 27.3592 88.6323 27.648C88.6568 27.9367 88.6323 28.1595 88.6323 29.4547L88.7791 31.08Z" fill="#AE9364"/>
<path fill-rule="evenodd" clip-rule="evenodd" d="M104.5 29.5779C104.5 28.2827 104.5 28.0434 104.5 27.7712C104.5 27.4989 104.589 27.3257 104.818 27.2844C104.926 27.2762 105.035 27.2762 105.144 27.2844C105.242 27.2844 105.29 27.2844 105.29 27.2019C105.29 27.1194 105.233 27.1277 105.119 27.1277H103.97C103.741 27.1277 103.211 27.1277 102.812 27.1277C102.689 27.1277 102.632 27.1277 102.632 27.2019C102.632 27.2762 102.681 27.2844 102.771 27.2844C102.863 27.2739 102.956 27.2739 103.048 27.2844C103.325 27.3422 103.399 27.4824 103.415 27.7712C103.431 28.0599 103.415 28.2827 103.415 29.5779V31.0794C103.415 31.9044 103.415 32.5397 103.415 32.8944C103.415 33.2492 103.334 33.3317 103.17 33.3647C103.067 33.3755 102.964 33.3755 102.861 33.3647C102.763 33.3647 102.73 33.3647 102.73 33.4389C102.73 33.5132 102.787 33.5214 102.901 33.5214H103.961C104.646 33.5214 105.201 33.5709 106.408 33.5709C106.848 33.5709 106.889 33.5297 106.938 33.3399C107.004 33.0162 107.047 32.6881 107.068 32.3582C107.068 32.2592 107.068 32.2179 106.995 32.2179C106.921 32.2179 106.913 32.2674 106.905 32.3417C106.877 32.5288 106.801 32.7053 106.685 32.8532C106.473 33.0842 106.147 33.0924 105.698 33.0924C105.038 33.0924 104.818 33.0347 104.679 32.9027C104.54 32.7707 104.5 32.1602 104.5 31.0712V29.5779Z" fill="#AE9364"/>
<path fill-rule="evenodd" clip-rule="evenodd" d="M118.638 33.6701C119.108 33.6869 119.572 33.5666 119.976 33.3236C120.485 33.0067 120.794 32.4437 120.791 31.8386C120.791 31.0136 120.424 30.4526 119.413 29.6606L119.176 29.4874C118.475 28.9429 118.28 28.6624 118.28 28.2581C118.282 28.0011 118.393 27.7574 118.585 27.5887C118.777 27.42 119.031 27.3424 119.282 27.3754C119.64 27.3519 119.985 27.5096 120.204 27.7961C120.331 27.9565 120.408 28.152 120.424 28.3571C120.424 28.4561 120.424 28.5139 120.506 28.5139C120.587 28.5139 120.595 28.4396 120.595 28.2581C120.595 27.5899 120.595 27.3424 120.595 27.2351C120.595 27.1279 120.546 27.1444 120.473 27.1279C120.106 27.03 119.727 26.9828 119.348 26.9876C118.182 26.9876 117.407 27.6559 117.407 28.5964C117.407 29.2894 117.725 29.8834 118.655 30.6176L119.038 30.9229C119.739 31.4756 119.853 31.8716 119.853 32.2924C119.837 32.5761 119.707 32.8407 119.492 33.0246C119.278 33.2085 118.999 33.2957 118.72 33.2659C118.176 33.3101 117.675 32.9675 117.513 32.4409C117.472 32.3014 117.447 32.1574 117.44 32.0119C117.44 31.9376 117.44 31.8634 117.35 31.8634C117.26 31.8634 117.26 31.9541 117.252 32.0861C117.244 32.2181 117.252 32.7296 117.252 33.1999C117.252 33.3896 117.252 33.4309 117.407 33.4886C117.8 33.6377 118.22 33.6996 118.638 33.6701Z" fill="#AE9364"/>
<path d="M158.927 20.4453H0V21.2703H158.927V20.4453Z" fill="#AE9364"/>
</svg>
