<svg width="131" height="28" viewBox="0 0 131 28" fill="none" xmlns="http://www.w3.org/2000/svg">
<path d="M94.6205 6.6587C92.5312 6.6587 90.7994 7.41095 89.5623 8.80398L89.8097 7.55025C89.8922 7.1602 89.6173 6.82587 89.2324 6.82587C88.8476 6.82587 88.4352 7.1602 88.3802 7.55025L84.7516 26.6348C84.6691 27.0249 84.944 27.3592 85.3289 27.3592C85.7137 27.3592 86.1261 27.0249 86.1811 26.6348L87.5281 19.5303C88.0229 20.4498 89.1775 21.6756 91.7615 21.6756C93.7958 21.6756 95.4727 21.0348 96.7922 19.809C98.1667 18.5274 99.1013 16.605 99.5687 14.1254C100.036 11.6458 99.8436 9.75124 98.9639 8.46965C98.1117 7.27164 96.6547 6.6587 94.6205 6.6587ZM92.0089 20.3662C88.9301 20.3662 87.7205 18.2209 88.4902 14.1532C89.2599 10.0577 91.2117 7.96816 94.2631 7.96816C97.6169 7.96816 98.8539 10.002 98.0567 14.1532C97.2595 18.4159 95.3352 20.3662 92.0089 20.3662ZM125.932 13.3731C124.117 12.6766 122.385 12.0358 122.715 10.3085C122.88 9.44478 123.567 7.99601 126.371 7.99601C127.938 7.99601 128.928 8.44179 129.78 9.52835C129.945 9.72338 130.137 9.72338 130.192 9.72338C130.577 9.69552 130.907 9.41691 130.99 9.05473C131.017 8.88756 130.99 8.72039 130.907 8.58109V8.55323C130.028 7.2995 128.598 6.6587 126.619 6.6587C123.76 6.6587 121.698 8.05174 121.286 10.3085C120.763 13.0109 123.128 13.9025 125.217 14.7104C127.004 15.407 128.708 16.0478 128.406 17.6915C127.966 20.0318 125.547 20.3662 124.145 20.3662C122.22 20.3662 121.038 19.8368 120.159 18.5831C120.049 18.4438 119.911 18.3881 119.746 18.3881C119.361 18.4159 119.032 18.6945 118.949 19.0567C118.922 19.2239 118.949 19.391 119.032 19.5303C119.609 20.6169 121.341 21.7313 123.897 21.7313C127.141 21.7313 129.368 20.2269 129.835 17.7194C130.33 15.0169 127.993 14.1254 125.932 13.3731ZM121.588 2.86965H120.076L120.379 1.33731C120.461 0.94726 120.186 0.61293 119.801 0.61293C119.416 0.61293 119.032 0.94726 118.949 1.33731L118.647 2.86965H117.135C116.75 2.86965 116.365 3.20398 116.283 3.59403C116.2 3.98408 116.475 4.31841 116.86 4.31841H118.372L118.069 5.85075C117.987 6.2408 118.262 6.57513 118.647 6.57513C119.032 6.57513 119.416 6.2408 119.499 5.85075L119.801 4.31841H121.313C121.698 4.31841 122.083 3.98408 122.165 3.59403C122.248 3.28756 122.055 2.95323 121.726 2.86965C121.698 2.89751 121.643 2.86965 121.588 2.86965ZM1.01713 17.6915C1.75936 18.0816 3.07888 18.6109 4.34342 18.5831C5.498 18.5831 6.10277 17.9423 6.10277 17.19C6.10277 16.4378 5.66294 15.9363 4.42589 15.2119C2.88645 14.3204 1.73187 13.0667 1.73187 11.4229C1.73187 8.52537 4.17848 6.46368 7.75217 6.46368C9.3191 6.46368 10.5287 6.77014 11.1884 7.16019L10.2538 10.0856C9.45655 9.72338 8.60436 9.52835 7.72469 9.52835C6.57011 9.52835 5.82787 10.0577 5.82787 10.8935C5.82787 11.5622 6.35018 12.0358 7.3948 12.593C8.98922 13.5124 10.3087 14.7662 10.3087 16.5493C10.3087 19.8368 7.66971 21.7035 4.01354 21.6756C2.33665 21.6478 0.769719 21.202 0 20.6448C0.02749 20.6448 1.01713 17.6915 1.01713 17.6915ZM11.1334 21.5642L15.092 0.61293H19.1605L17.5936 8.72039L17.6486 8.66468C18.7482 7.35523 20.1501 6.43582 21.9645 6.43582C24.0812 6.43582 25.2908 7.82885 25.2908 10.1413C25.2908 10.8657 25.1808 12.008 24.9884 12.9274L23.394 21.5363H19.3255L20.8649 13.1781C20.9748 12.6209 21.0298 11.8687 21.0298 11.3114C21.0298 10.4199 20.6725 9.75124 19.7653 9.75124C18.4733 9.75124 17.0713 11.5065 16.549 14.2368L15.202 21.5363L11.1334 21.5642ZM40.0254 12.203C40.0254 17.3293 36.7816 21.6756 31.9708 21.6756C28.3147 21.6756 26.3629 19.1124 26.3629 15.9085C26.3629 10.9214 29.6067 6.43582 34.4999 6.43582C38.321 6.43582 40.0254 9.24975 40.0254 12.203ZM30.5414 15.8249C30.5414 17.3293 31.1186 18.5274 32.5206 18.5274C34.6648 18.5274 35.8744 14.6269 35.8744 12.0915C35.8744 10.8657 35.4071 9.61194 33.9501 9.61194C31.7509 9.58408 30.5414 13.4567 30.5414 15.8249ZM39.0632 27.3871L41.8947 12.2866C42.2246 10.5871 42.5545 8.38607 42.7194 6.82587H46.3206L46.0732 9.16617H46.1282C47.2278 7.60597 48.8222 6.57513 50.4441 6.57513C53.413 6.57513 54.6226 8.999 54.6226 11.7572C54.6226 16.7721 51.4887 21.7313 46.7055 21.7313C45.7158 21.7313 44.7812 21.5642 44.3138 21.1741H44.2314L43.1043 27.3871H39.0632ZM44.8636 17.9701C45.3035 18.3323 45.7983 18.5552 46.5405 18.5552C48.8222 18.5552 50.3891 14.7662 50.3891 12.0915C50.3891 10.9771 50.0043 9.80696 48.7672 9.80696C47.3377 9.80696 46.0182 11.5065 45.5509 14.0975L44.8636 17.9701ZM54.76 21.5642L57.509 6.82587H61.605L58.8285 21.5642H54.76ZM60.0381 5.29353C58.8835 5.29353 58.1138 4.29055 58.1138 3.06468C58.1138 1.72736 59.1584 0.585076 60.4504 0.585076C61.6875 0.585076 62.4847 1.5602 62.4847 2.75821C62.4572 4.29055 61.3576 5.26567 60.0931 5.26567C60.0931 5.29353 60.0381 5.29353 60.0381 5.29353ZM62.3747 21.5642L64.519 9.91841H62.6221L63.1994 6.82587H65.0962L65.2062 6.07363C65.5361 4.34627 66.1684 2.56318 67.5703 1.39303C68.6699 0.445771 70.0994 0 71.5564 0C72.546 0 73.2883 0.1393 73.7556 0.362186L72.9584 3.59403C72.546 3.45472 72.1062 3.37115 71.6664 3.37115C70.3193 3.37115 69.4946 4.68059 69.2472 6.10149L69.1098 6.85373H71.9413L71.3915 9.94626H68.5875L66.4433 21.592L62.3747 21.5642ZM77.0269 6.82587L77.6867 13.4289C77.8241 14.599 77.9341 15.7413 78.044 16.9114H78.099C78.4289 16.1313 78.7313 14.9891 79.3086 13.401L81.7827 6.82587H86.0436L81.0679 17.608C79.3086 21.3134 77.5767 24.0159 75.7349 25.7711C74.2779 27.1363 72.5735 27.8328 71.7488 28L70.6217 24.4895C71.309 24.2388 72.1612 23.8766 72.9309 23.3194C73.8655 22.6507 74.6628 21.7592 75.1576 20.8398C75.2675 20.6169 75.295 20.4776 75.2401 20.199L72.7934 6.79801C72.7385 6.82587 77.0269 6.82587 77.0269 6.82587ZM118.262 8.21891C117.877 8.21891 117.492 8.55324 117.41 8.94328L116.035 16.1871C115.293 19.8647 113.066 20.3662 110.95 20.3662C107.183 20.3662 107.073 18.193 107.486 16.0478L109.108 7.55025C109.19 7.1602 108.915 6.82587 108.53 6.82587C108.146 6.82587 107.761 7.1602 107.678 7.55025L106.056 16.0478C105.726 17.7751 105.836 19.0289 106.414 19.9483C107.128 21.0905 108.558 21.6756 110.702 21.6756C112.846 21.6756 114.496 21.0905 115.65 19.9483C116.557 19.0289 117.162 17.7473 117.492 16.0478L118.839 8.91542C118.922 8.55323 118.647 8.21891 118.262 8.21891ZM105.259 0.640793C104.874 0.640793 104.462 0.975123 104.407 1.36517L100.723 20.7841C100.641 21.1741 100.916 21.5085 101.301 21.5085C101.685 21.5085 102.07 21.1741 102.153 20.7841L105.836 1.36517C105.919 0.975123 105.644 0.640793 105.259 0.640793Z" fill="white"/>
</svg>
